<mxfile host="app.diagrams.net" modified="2022-05-18T01:16:36.505Z" agent="5.0 (Windows NT 10.0; Win64; x64) AppleWebKit/537.36 (KHTML, like Gecko) Chrome/100.0.4896.60 Safari/537.36 Edg/100.0.1185.29" etag="OP_RswkAbzW4MOOTrZ33" version="18.0.7" type="github">
  <diagram id="wblvO9D-ZUIbQ3TdHfIF" name="Page-1">
    <mxGraphModel dx="2287" dy="1064" grid="1" gridSize="10" guides="1" tooltips="1" connect="1" arrows="1" fold="1" page="0" pageScale="0.8" pageWidth="827" pageHeight="1169" background="none" math="0" shadow="0">
      <root>
        <mxCell id="0" />
        <mxCell id="1" parent="0" />
        <mxCell id="OHIZTz-bLhAv7k97ndpH-103" style="edgeStyle=orthogonalEdgeStyle;orthogonalLoop=1;jettySize=auto;html=1;entryX=0;entryY=0.75;entryDx=0;entryDy=0;sketch=1;curved=1;" parent="1" source="OHIZTz-bLhAv7k97ndpH-71" target="OHIZTz-bLhAv7k97ndpH-72" edge="1">
          <mxGeometry relative="1" as="geometry" />
        </mxCell>
        <mxCell id="OHIZTz-bLhAv7k97ndpH-104" style="edgeStyle=orthogonalEdgeStyle;curved=1;sketch=1;orthogonalLoop=1;jettySize=auto;html=1;" parent="1" source="OHIZTz-bLhAv7k97ndpH-71" target="OHIZTz-bLhAv7k97ndpH-76" edge="1">
          <mxGeometry relative="1" as="geometry">
            <Array as="points">
              <mxPoint x="930" y="1140" />
              <mxPoint x="930" y="1020" />
            </Array>
          </mxGeometry>
        </mxCell>
        <mxCell id="OHIZTz-bLhAv7k97ndpH-105" style="edgeStyle=orthogonalEdgeStyle;curved=1;sketch=1;orthogonalLoop=1;jettySize=auto;html=1;entryX=0;entryY=0.5;entryDx=0;entryDy=0;" parent="1" source="OHIZTz-bLhAv7k97ndpH-71" target="OHIZTz-bLhAv7k97ndpH-79" edge="1">
          <mxGeometry relative="1" as="geometry" />
        </mxCell>
        <mxCell id="OHIZTz-bLhAv7k97ndpH-106" style="edgeStyle=orthogonalEdgeStyle;curved=1;sketch=1;orthogonalLoop=1;jettySize=auto;html=1;entryX=0;entryY=0.5;entryDx=0;entryDy=0;" parent="1" source="OHIZTz-bLhAv7k97ndpH-71" target="OHIZTz-bLhAv7k97ndpH-82" edge="1">
          <mxGeometry relative="1" as="geometry" />
        </mxCell>
        <mxCell id="OHIZTz-bLhAv7k97ndpH-71" value="" style="rounded=1;whiteSpace=wrap;html=1;strokeWidth=2;fillWeight=4;hachureGap=8;hachureAngle=45;fillColor=#1ba1e2;sketch=1;shadow=1;" parent="1" vertex="1">
          <mxGeometry x="1110" y="1059.5" width="80" height="161" as="geometry" />
        </mxCell>
        <mxCell id="OHIZTz-bLhAv7k97ndpH-74" value="" style="group" parent="1" vertex="1" connectable="0">
          <mxGeometry x="800" y="879" width="80" height="80" as="geometry" />
        </mxCell>
        <mxCell id="OHIZTz-bLhAv7k97ndpH-72" value="" style="shape=delay;whiteSpace=wrap;html=1;shadow=0;sketch=1;direction=west;fillColor=#e51400;strokeColor=#B20000;fontColor=#ffffff;" parent="OHIZTz-bLhAv7k97ndpH-74" vertex="1">
          <mxGeometry width="80" height="40" as="geometry" />
        </mxCell>
        <mxCell id="OHIZTz-bLhAv7k97ndpH-73" value="" style="shape=delay;whiteSpace=wrap;html=1;shadow=0;sketch=1;direction=west;fillColor=#f0a30a;strokeColor=#BD7000;fontColor=#000000;" parent="OHIZTz-bLhAv7k97ndpH-74" vertex="1">
          <mxGeometry y="40" width="80" height="40" as="geometry" />
        </mxCell>
        <mxCell id="OHIZTz-bLhAv7k97ndpH-75" value="" style="group" parent="1" vertex="1" connectable="0">
          <mxGeometry x="800" y="1000" width="80" height="80" as="geometry" />
        </mxCell>
        <mxCell id="OHIZTz-bLhAv7k97ndpH-76" value="" style="shape=delay;whiteSpace=wrap;html=1;shadow=0;sketch=1;direction=west;fillColor=#e51400;strokeColor=#B20000;fontColor=#ffffff;" parent="OHIZTz-bLhAv7k97ndpH-75" vertex="1">
          <mxGeometry width="80" height="40" as="geometry" />
        </mxCell>
        <mxCell id="OHIZTz-bLhAv7k97ndpH-77" value="" style="shape=delay;whiteSpace=wrap;html=1;shadow=0;sketch=1;direction=west;fillColor=#f0a30a;strokeColor=#BD7000;fontColor=#000000;" parent="OHIZTz-bLhAv7k97ndpH-75" vertex="1">
          <mxGeometry y="40" width="80" height="40" as="geometry" />
        </mxCell>
        <mxCell id="OHIZTz-bLhAv7k97ndpH-78" value="" style="group" parent="1" vertex="1" connectable="0">
          <mxGeometry x="800" y="1120" width="80" height="80" as="geometry" />
        </mxCell>
        <mxCell id="OHIZTz-bLhAv7k97ndpH-79" value="" style="shape=delay;whiteSpace=wrap;html=1;shadow=0;sketch=1;direction=west;fillColor=#e51400;strokeColor=#B20000;fontColor=#ffffff;" parent="OHIZTz-bLhAv7k97ndpH-78" vertex="1">
          <mxGeometry width="80" height="40" as="geometry" />
        </mxCell>
        <mxCell id="OHIZTz-bLhAv7k97ndpH-80" value="" style="shape=delay;whiteSpace=wrap;html=1;shadow=0;sketch=1;direction=west;fillColor=#f0a30a;strokeColor=#BD7000;fontColor=#000000;" parent="OHIZTz-bLhAv7k97ndpH-78" vertex="1">
          <mxGeometry y="40" width="80" height="40" as="geometry" />
        </mxCell>
        <mxCell id="OHIZTz-bLhAv7k97ndpH-81" value="" style="group" parent="1" vertex="1" connectable="0">
          <mxGeometry x="800" y="1360" width="80" height="80" as="geometry" />
        </mxCell>
        <mxCell id="OHIZTz-bLhAv7k97ndpH-82" value="" style="shape=delay;whiteSpace=wrap;html=1;shadow=0;sketch=1;direction=west;fillColor=#e51400;strokeColor=#B20000;fontColor=#ffffff;" parent="OHIZTz-bLhAv7k97ndpH-81" vertex="1">
          <mxGeometry width="80" height="40" as="geometry" />
        </mxCell>
        <mxCell id="OHIZTz-bLhAv7k97ndpH-83" value="" style="shape=delay;whiteSpace=wrap;html=1;shadow=0;sketch=1;direction=west;fillColor=#f0a30a;strokeColor=#BD7000;fontColor=#000000;" parent="OHIZTz-bLhAv7k97ndpH-81" vertex="1">
          <mxGeometry y="40" width="80" height="40" as="geometry" />
        </mxCell>
        <mxCell id="OHIZTz-bLhAv7k97ndpH-88" value="" style="group;flipH=1;" parent="1" vertex="1" connectable="0">
          <mxGeometry x="820" y="1200" width="39" height="152" as="geometry" />
        </mxCell>
        <mxCell id="OHIZTz-bLhAv7k97ndpH-84" value="" style="shape=waypoint;sketch=0;fillStyle=solid;size=6;pointerEvents=1;points=[];fillColor=none;resizable=0;rotatable=0;perimeter=centerPerimeter;snapToPoint=1;shadow=0;" parent="OHIZTz-bLhAv7k97ndpH-88" vertex="1">
          <mxGeometry width="40" height="40" as="geometry" />
        </mxCell>
        <mxCell id="OHIZTz-bLhAv7k97ndpH-85" value="" style="shape=waypoint;sketch=0;fillStyle=solid;size=6;pointerEvents=1;points=[];fillColor=none;resizable=0;rotatable=0;perimeter=centerPerimeter;snapToPoint=1;shadow=0;" parent="OHIZTz-bLhAv7k97ndpH-88" vertex="1">
          <mxGeometry y="30.4" width="40" height="40" as="geometry" />
        </mxCell>
        <mxCell id="OHIZTz-bLhAv7k97ndpH-86" value="" style="shape=waypoint;sketch=0;fillStyle=solid;size=6;pointerEvents=1;points=[];fillColor=none;resizable=0;rotatable=0;perimeter=centerPerimeter;snapToPoint=1;shadow=0;" parent="OHIZTz-bLhAv7k97ndpH-88" vertex="1">
          <mxGeometry y="70.93333333333334" width="40" height="40" as="geometry" />
        </mxCell>
        <mxCell id="OHIZTz-bLhAv7k97ndpH-87" value="" style="shape=waypoint;sketch=0;fillStyle=solid;size=6;pointerEvents=1;points=[];fillColor=none;resizable=0;rotatable=0;perimeter=centerPerimeter;snapToPoint=1;shadow=0;" parent="OHIZTz-bLhAv7k97ndpH-88" vertex="1">
          <mxGeometry y="111.46666666666665" width="40" height="40" as="geometry" />
        </mxCell>
        <mxCell id="OHIZTz-bLhAv7k97ndpH-121" style="edgeStyle=orthogonalEdgeStyle;curved=1;sketch=1;orthogonalLoop=1;jettySize=auto;html=1;entryX=0.875;entryY=0.5;entryDx=0;entryDy=0;entryPerimeter=0;strokeWidth=2;" parent="1" target="OHIZTz-bLhAv7k97ndpH-90" edge="1">
          <mxGeometry relative="1" as="geometry">
            <mxPoint x="502" y="1160" as="sourcePoint" />
          </mxGeometry>
        </mxCell>
        <mxCell id="6UkwjP3vfvwC51z3tcwU-3" style="edgeStyle=orthogonalEdgeStyle;rounded=0;orthogonalLoop=1;jettySize=auto;html=1;entryX=1;entryY=0.5;entryDx=0;entryDy=0;sketch=1;strokeWidth=2;" edge="1" parent="1" source="OHIZTz-bLhAv7k97ndpH-90" target="6UkwjP3vfvwC51z3tcwU-2">
          <mxGeometry relative="1" as="geometry" />
        </mxCell>
        <mxCell id="OHIZTz-bLhAv7k97ndpH-90" value="&lt;font style=&quot;font-size: 24px;&quot;&gt;Classifier&lt;br&gt;Head&lt;br&gt;&lt;/font&gt;" style="ellipse;shape=cloud;whiteSpace=wrap;html=1;align=center;shadow=0;sketch=1;fillColor=#cdeb8b;strokeColor=#36393d;" parent="1" vertex="1">
          <mxGeometry x="120" y="1090" width="219" height="140" as="geometry" />
        </mxCell>
        <mxCell id="OHIZTz-bLhAv7k97ndpH-98" value="" style="shape=singleArrow;whiteSpace=wrap;html=1;shadow=0;sketch=1;" parent="1" vertex="1">
          <mxGeometry x="-113" y="587.5" width="100" height="60" as="geometry" />
        </mxCell>
        <mxCell id="OHIZTz-bLhAv7k97ndpH-99" value="" style="shape=singleArrow;whiteSpace=wrap;html=1;shadow=0;sketch=1;" parent="1" vertex="1">
          <mxGeometry x="185" y="559" width="100" height="60" as="geometry" />
        </mxCell>
        <mxCell id="OHIZTz-bLhAv7k97ndpH-100" value="" style="shape=singleArrow;whiteSpace=wrap;html=1;shadow=0;sketch=1;" parent="1" vertex="1">
          <mxGeometry x="557" y="529" width="100" height="60" as="geometry" />
        </mxCell>
        <mxCell id="OHIZTz-bLhAv7k97ndpH-102" value="" style="html=1;shadow=0;dashed=0;align=center;verticalAlign=middle;shape=mxgraph.arrows2.bendArrow;dy=15;dx=38;notch=0;arrowHead=55;rounded=1;sketch=1;rotation=90;" parent="1" vertex="1">
          <mxGeometry x="885.57" y="731.57" width="480" height="96.37" as="geometry" />
        </mxCell>
        <mxCell id="OHIZTz-bLhAv7k97ndpH-113" value="" style="verticalLabelPosition=bottom;verticalAlign=top;html=1;strokeWidth=2;shape=mxgraph.arrows2.arrow;dy=0.6;dx=40;notch=0;shadow=0;sketch=1;direction=west;fillColor=#f5f5f5;fontColor=#333333;strokeColor=#666666;" parent="1" vertex="1">
          <mxGeometry x="680" y="900" width="100" height="70" as="geometry" />
        </mxCell>
        <mxCell id="OHIZTz-bLhAv7k97ndpH-117" value="" style="verticalLabelPosition=bottom;verticalAlign=top;html=1;strokeWidth=2;shape=mxgraph.arrows2.arrow;dy=0.6;dx=40;notch=0;shadow=0;sketch=1;direction=west;fillColor=#f5f5f5;fontColor=#333333;strokeColor=#666666;" parent="1" vertex="1">
          <mxGeometry x="680" y="1020" width="100" height="70" as="geometry" />
        </mxCell>
        <mxCell id="OHIZTz-bLhAv7k97ndpH-118" value="" style="verticalLabelPosition=bottom;verticalAlign=top;html=1;strokeWidth=2;shape=mxgraph.arrows2.arrow;dy=0.6;dx=40;notch=0;shadow=0;sketch=1;direction=west;fillColor=#f5f5f5;fontColor=#333333;strokeColor=#666666;" parent="1" vertex="1">
          <mxGeometry x="680" y="1140" width="100" height="70" as="geometry" />
        </mxCell>
        <mxCell id="OHIZTz-bLhAv7k97ndpH-119" value="" style="verticalLabelPosition=bottom;verticalAlign=top;html=1;strokeWidth=2;shape=mxgraph.arrows2.arrow;dy=0.6;dx=40;notch=0;shadow=0;sketch=1;direction=west;fillColor=#f5f5f5;fontColor=#333333;strokeColor=#666666;" parent="1" vertex="1">
          <mxGeometry x="680" y="1380" width="100" height="70" as="geometry" />
        </mxCell>
        <mxCell id="OHIZTz-bLhAv7k97ndpH-128" value="" style="shape=cube;whiteSpace=wrap;html=1;boundedLbl=1;backgroundOutline=1;darkOpacity=0.05;darkOpacity2=0.1;shadow=0;sketch=1;gradientColor=#ffffff;" parent="1" vertex="1">
          <mxGeometry x="-330" y="578" width="170" height="80" as="geometry" />
        </mxCell>
        <mxCell id="OHIZTz-bLhAv7k97ndpH-129" value="" style="shape=cube;whiteSpace=wrap;html=1;boundedLbl=1;backgroundOutline=1;darkOpacity=0.05;darkOpacity2=0.1;shadow=0;sketch=1;fillColor=#ffcccc;strokeColor=#36393d;" parent="1" vertex="1">
          <mxGeometry x="60" y="530" width="60" height="150" as="geometry" />
        </mxCell>
        <mxCell id="OHIZTz-bLhAv7k97ndpH-130" value="" style="shape=cube;whiteSpace=wrap;html=1;boundedLbl=1;backgroundOutline=1;darkOpacity=0.05;darkOpacity2=0.1;shadow=0;sketch=1;fillColor=#e1d5e7;strokeColor=#9673a6;" parent="1" vertex="1">
          <mxGeometry x="400" y="514" width="60" height="150" as="geometry" />
        </mxCell>
        <mxCell id="OHIZTz-bLhAv7k97ndpH-131" value="" style="rounded=1;whiteSpace=wrap;html=1;strokeWidth=2;fillWeight=4;hachureGap=8;hachureAngle=45;fillColor=#ffe6cc;sketch=1;shadow=0;strokeColor=#d79b00;" parent="1" vertex="1">
          <mxGeometry x="710" y="460" width="70" height="210" as="geometry" />
        </mxCell>
        <mxCell id="OHIZTz-bLhAv7k97ndpH-134" value="" style="shape=cube;whiteSpace=wrap;html=1;boundedLbl=1;backgroundOutline=1;darkOpacity=0.05;darkOpacity2=0.1;shadow=0;sketch=1;fillColor=#6d8764;fontColor=#ffffff;strokeColor=#3A5431;" parent="1" vertex="1">
          <mxGeometry x="950" y="414" width="90" height="50" as="geometry" />
        </mxCell>
        <mxCell id="OHIZTz-bLhAv7k97ndpH-135" value="" style="shape=cube;whiteSpace=wrap;html=1;boundedLbl=1;backgroundOutline=1;darkOpacity=0.05;darkOpacity2=0.1;shadow=0;sketch=1;fillColor=#6d8764;fontColor=#ffffff;strokeColor=#3A5431;" parent="1" vertex="1">
          <mxGeometry x="950" y="494" width="90" height="50" as="geometry" />
        </mxCell>
        <mxCell id="OHIZTz-bLhAv7k97ndpH-136" value="" style="shape=cube;whiteSpace=wrap;html=1;boundedLbl=1;backgroundOutline=1;darkOpacity=0.05;darkOpacity2=0.1;shadow=0;sketch=1;fillColor=#6d8764;fontColor=#ffffff;strokeColor=#3A5431;" parent="1" vertex="1">
          <mxGeometry x="950" y="573" width="90" height="50" as="geometry" />
        </mxCell>
        <mxCell id="OHIZTz-bLhAv7k97ndpH-137" value="" style="shape=cube;whiteSpace=wrap;html=1;boundedLbl=1;backgroundOutline=1;darkOpacity=0.05;darkOpacity2=0.1;shadow=0;sketch=1;fillColor=#6d8764;fontColor=#ffffff;strokeColor=#3A5431;" parent="1" vertex="1">
          <mxGeometry x="950" y="654" width="90" height="50" as="geometry" />
        </mxCell>
        <mxCell id="OHIZTz-bLhAv7k97ndpH-139" value="" style="shape=singleArrow;whiteSpace=wrap;html=1;shadow=0;sketch=1;" parent="1" vertex="1">
          <mxGeometry x="810" y="518" width="100" height="60" as="geometry" />
        </mxCell>
        <mxCell id="OHIZTz-bLhAv7k97ndpH-140" value="&lt;font style=&quot;font-size: 25px;&quot;&gt;Hyperspectral Data&lt;/font&gt;" style="text;html=1;align=center;verticalAlign=middle;resizable=0;points=[];autosize=1;strokeColor=none;fillColor=none;fontFamily=Comic Sans MS;fontStyle=0;fontSize=20;" parent="1" vertex="1">
          <mxGeometry x="-345" y="690" width="250" height="30" as="geometry" />
        </mxCell>
        <mxCell id="OHIZTz-bLhAv7k97ndpH-142" value="&lt;span style=&quot;font-weight: normal;&quot;&gt;Conv3D+BN&lt;/span&gt;" style="text;strokeColor=none;fillColor=none;html=1;fontSize=24;fontStyle=1;verticalAlign=middle;align=center;shadow=0;sketch=1;fontFamily=Comic Sans MS;" parent="1" vertex="1">
          <mxGeometry x="-113" y="549" width="100" height="40" as="geometry" />
        </mxCell>
        <mxCell id="OHIZTz-bLhAv7k97ndpH-143" value="&lt;span style=&quot;font-weight: normal; font-style: normal;&quot;&gt;ReLU&lt;/span&gt;" style="text;strokeColor=none;fillColor=none;html=1;fontSize=24;fontStyle=3;verticalAlign=middle;align=center;shadow=0;sketch=1;fontFamily=Comic Sans MS;" parent="1" vertex="1">
          <mxGeometry x="-130" y="630" width="100" height="40" as="geometry" />
        </mxCell>
        <mxCell id="OHIZTz-bLhAv7k97ndpH-144" value="&lt;span style=&quot;font-weight: 400;&quot;&gt;HetConv2D&lt;/span&gt;" style="text;strokeColor=none;fillColor=none;html=1;fontSize=24;fontStyle=1;verticalAlign=middle;align=center;shadow=0;sketch=1;fontFamily=Comic Sans MS;" parent="1" vertex="1">
          <mxGeometry x="179.5" y="519" width="100" height="40" as="geometry" />
        </mxCell>
        <mxCell id="OHIZTz-bLhAv7k97ndpH-145" value="&lt;span style=&quot;font-weight: 400;&quot;&gt;BN+ReLU&lt;/span&gt;" style="text;strokeColor=none;fillColor=none;html=1;fontSize=24;fontStyle=1;verticalAlign=middle;align=center;shadow=0;sketch=1;fontFamily=Comic Sans MS;" parent="1" vertex="1">
          <mxGeometry x="179.5" y="618" width="100" height="40" as="geometry" />
        </mxCell>
        <mxCell id="OHIZTz-bLhAv7k97ndpH-146" value="&lt;span style=&quot;font-weight: normal;&quot;&gt;64&lt;/span&gt;" style="text;strokeColor=none;fillColor=none;html=1;fontSize=24;fontStyle=1;verticalAlign=middle;align=center;shadow=0;sketch=1;fontFamily=Comic Sans MS;" parent="1" vertex="1">
          <mxGeometry x="430" y="573" width="100" height="40" as="geometry" />
        </mxCell>
        <mxCell id="OHIZTz-bLhAv7k97ndpH-147" value="&lt;span style=&quot;font-weight: normal;&quot;&gt;11&lt;/span&gt;" style="text;strokeColor=none;fillColor=none;html=1;fontSize=24;fontStyle=1;verticalAlign=middle;align=center;shadow=0;sketch=1;fontFamily=Comic Sans MS;" parent="1" vertex="1">
          <mxGeometry x="390" y="664" width="100" height="40" as="geometry" />
        </mxCell>
        <mxCell id="OHIZTz-bLhAv7k97ndpH-148" value="&lt;span style=&quot;font-weight: normal;&quot;&gt;11&lt;/span&gt;" style="text;strokeColor=none;fillColor=none;html=1;fontSize=24;fontStyle=1;verticalAlign=middle;align=center;shadow=0;sketch=1;fontFamily=Comic Sans MS;" parent="1" vertex="1">
          <mxGeometry x="330" y="640" width="100" height="40" as="geometry" />
        </mxCell>
        <mxCell id="OHIZTz-bLhAv7k97ndpH-149" value="&lt;div style=&quot;&quot;&gt;&lt;span style=&quot;font-weight: 400; background-color: initial;&quot;&gt;Flatten of 11x11 Conv Patch&lt;/span&gt;&lt;/div&gt;" style="text;strokeColor=none;fillColor=none;html=1;fontSize=24;fontStyle=1;verticalAlign=middle;align=center;shadow=0;sketch=1;fontFamily=Comic Sans MS;" parent="1" vertex="1">
          <mxGeometry x="695" y="692" width="100" height="40" as="geometry" />
        </mxCell>
        <mxCell id="OHIZTz-bLhAv7k97ndpH-150" value="&lt;span style=&quot;font-weight: normal;&quot;&gt;1&lt;/span&gt;" style="text;strokeColor=none;fillColor=none;html=1;fontSize=24;fontStyle=1;verticalAlign=middle;align=center;shadow=0;sketch=1;fontFamily=Comic Sans MS;" parent="1" vertex="1">
          <mxGeometry x="885.57" y="414" width="100" height="40" as="geometry" />
        </mxCell>
        <mxCell id="OHIZTz-bLhAv7k97ndpH-151" value="&lt;span style=&quot;font-weight: normal;&quot;&gt;1&lt;/span&gt;" style="text;strokeColor=none;fillColor=none;html=1;fontSize=24;fontStyle=1;verticalAlign=middle;align=center;shadow=0;sketch=1;fontFamily=Comic Sans MS;" parent="1" vertex="1">
          <mxGeometry x="900" y="440" width="100" height="40" as="geometry" />
        </mxCell>
        <mxCell id="OHIZTz-bLhAv7k97ndpH-152" value="&lt;span style=&quot;font-weight: normal;&quot;&gt;64&lt;/span&gt;" style="text;strokeColor=none;fillColor=none;html=1;fontSize=24;fontStyle=1;verticalAlign=middle;align=center;shadow=0;sketch=1;fontFamily=Comic Sans MS;" parent="1" vertex="1">
          <mxGeometry x="945" y="370" width="100" height="40" as="geometry" />
        </mxCell>
        <mxCell id="OHIZTz-bLhAv7k97ndpH-153" value="&lt;span style=&quot;font-weight: 400;&quot;&gt;Tokenization with &lt;br&gt;Hyperspectral patch tokens&lt;/span&gt;" style="text;strokeColor=none;fillColor=none;html=1;fontSize=24;fontStyle=1;verticalAlign=middle;align=center;shadow=0;sketch=1;fontFamily=Comic Sans MS;" parent="1" vertex="1">
          <mxGeometry x="1120" y="1246" width="90" height="60" as="geometry" />
        </mxCell>
        <mxCell id="OHIZTz-bLhAv7k97ndpH-155" value="" style="rounded=1;whiteSpace=wrap;html=1;shadow=0;sketch=1;fontFamily=Comic Sans MS;fontSize=25;fillColor=#dae8fc;strokeColor=#6c8ebf;" parent="1" vertex="1">
          <mxGeometry x="510" y="904.5" width="120" height="511" as="geometry" />
        </mxCell>
        <mxCell id="OHIZTz-bLhAv7k97ndpH-156" value="&lt;span style=&quot;font-weight: 400;&quot;&gt;&lt;font color=&quot;#33001a&quot; style=&quot;font-size: 20px;&quot;&gt;Encoder&lt;/font&gt;&lt;/span&gt;" style="label;whiteSpace=wrap;html=1;align=center;verticalAlign=bottom;spacingLeft=0;spacingBottom=4;imageAlign=center;imageVerticalAlign=top;image=img/clipart/Gear_128x128.png;shadow=0;sketch=1;fontFamily=Comic Sans MS;fontSize=25;strokeColor=#314354;fillColor=#647687;fontColor=#ffffff;" parent="1" vertex="1">
          <mxGeometry x="530" y="990" width="80" height="330" as="geometry" />
        </mxCell>
        <mxCell id="OHIZTz-bLhAv7k97ndpH-157" value="&lt;span style=&quot;font-weight: 400;&quot;&gt;Transformer Encoder&lt;br&gt;with Cross Attention Layer&lt;br&gt;&lt;/span&gt;" style="text;strokeColor=none;fillColor=none;html=1;fontSize=24;fontStyle=1;verticalAlign=middle;align=center;shadow=0;sketch=1;fontFamily=Comic Sans MS;fontColor=#33001A;" parent="1" vertex="1">
          <mxGeometry x="510" y="1440" width="100" height="40" as="geometry" />
        </mxCell>
        <mxCell id="OHIZTz-bLhAv7k97ndpH-160" value="" style="html=1;shadow=0;dashed=0;align=center;verticalAlign=middle;shape=mxgraph.arrows2.uTurnArrow;dy=11;arrowHead=43;dx2=25;sketch=1;fontFamily=Comic Sans MS;fontSize=24;strokeWidth=1;fillColor=#f5f5f5;fontColor=#333333;strokeColor=#666666;" parent="1" vertex="1">
          <mxGeometry x="420" y="904.5" width="80" height="80" as="geometry" />
        </mxCell>
        <mxCell id="OHIZTz-bLhAv7k97ndpH-161" value="&lt;span style=&quot;font-weight: normal;&quot;&gt;Ex&lt;/span&gt;" style="text;strokeColor=none;fillColor=none;html=1;fontSize=24;fontStyle=1;verticalAlign=middle;align=center;shadow=0;sketch=1;fontFamily=Comic Sans MS;fontColor=#000000;" parent="1" vertex="1">
          <mxGeometry x="350" y="890" width="100" height="40" as="geometry" />
        </mxCell>
        <mxCell id="OHIZTz-bLhAv7k97ndpH-162" value="" style="shape=image;verticalLabelPosition=bottom;labelBackgroundColor=default;verticalAlign=top;aspect=fixed;imageAspect=0;image=data:image/png,iVBORw0KGgoAAAANSUhEUgAAAPYAAABgCAYAAAAuLY+WAAAAAXNSR0IArs4c6QAAAARnQU1BAACxjwv8YQUAAAAJcEhZcwAAEnQAABJ0Ad5mH3gAAJsxSURBVHhe3f1Xr2ZZeif47Tjenzjh0mf5oikSLQwFjAABgoCR2D3dDcy9vofu41Pou4x0KTcCNGSzyabpKhaZlS4ywx5vI878f//17sisKnbfx6wTO95t1nrWsx6/zF77zube9u3q6vK0vLwy7W5tTxdXF9PFxZvp7Gxpurlcm6bbpem/nG6n9fXbaWPjzbS9cyfny9PN65vp+vXr6fzicnp9ezvd5ki2abozSty5A97ttJQbr1+/mdbXVqel5aWUXZ/2t9eDw3qz39zcJm/yTMvT9OaNkoH9evrNl9/096OPP5z++3//b6aV1dXkC8Q3rwv34ux8urm+nrZ2d6aVldVpeWllWg3s28C4ODud/r//z//X9NUXX02nlxfTytLytJb678Ax8N8kz9H5Wc6Wpj//8//jtL27N22k7MsXL/PsOuUvWvebZL+8upx+8/kX0/OnL6a7u9vT8cnFtLqyVNxXlpam18n0Ju27vLmZLi+vC/tO7qMHfHe3Nkun6zwvhe+sTNuh/xs0e3MzHZ2cpDl3gt9a8VPutfzXN24v6Khc4C0F4wBdyb3l5fAgtFhdXU/9sJHAfD3dybOcBZe0IfjcBj9l93a2pvPzq+KCH+q8uXmd35X+vs5xZzm4hNZn56HvzZvKy872dnl4dnEa+LfT5ubWtLaePKdHhav+pfwib+UgKVf5C76Bt6qu8Oj0/GLa3d5M3WutazX1Sui3Etk4OjkPH5dC85vwY226urwqLdWFr2cpfxm521hdK7/ehE55HP4vlS5XgXlycTW9Ka3vFNZVztF6E31DN/yS7/Y2dIm4LdAt3m/yjIxKN1dXgZ3zlFH3zFPl0BksPEBj951rL4Bovhw4d1wHL7RAp7XoH9lZSd6VnF9fvylNXuf3dcrQz6XyOzKQazKA7q4HbKe300roWTmJ/C/vbG8+fh0GUAKCfnV9FYatR6HOp5X1y2l7M8qVht2+AThAfitRzjsR3KXp+PjOdH6mhjvT1sZSmDwUFMNHzaM0oU5bpu0wRdPee7A/HUQx0A3TKLOMhKJES0OWpihlmKoxV1fXZfAf/tHPo9wfhcghHGbcRvjyVwKnurW19da5ur5RmJj46sXz6e/+5m9juK7CxChb7m2EsW8iqBA7v7joPfWfRVHvaHfgXScvom9EGS8i2BfnoUuU4d7du9Phy1cTMTw5u2zbNkLc19E8YFYi/ISoypg82EDQVgPrJm2pcqUORqz0X11pey9jdCi9EoT7TtpIuBiVKkjqWU77liPId0I4yqNysJW5CQwCNkRn1KnM2vpWjPDmtLW1FUO6FmGdpq3wAV0vQldpNXgMZYxQUoDr0DVlKdhlBAa+wXrATh70ev0693O9uRlahg+XEX6J0LJC8hebXN+Er0Mom2NaDnCGiAKsrSynLu3QnDuhOyP6prSqwIZPGxvBN/cJeJUmoOB7EWWnNKurG8k74Ff20CuJojhdCVztgos2rYXmb4IjuQrItgut8aa/hTUUFADtXco54wHH/OsBPwpfA957FJ5PynUgKOO38px8vVBbMq9od/BZipEGhyLflm7S4GXlsrgATofwfch+U5s65FWG5c2tzceIzQK3MWEMlZu9QuqMJbiZ7t69M0UmihRBVPFvp6Hk5+d3psNDSk6AV8LsCGysM7zkWcE1eQMj/6bNCNjqyko9J0awspAkzHfuDALmIv+GZTxLJIAYFPvBw4clyGDgIKgGrwZm6wrc5QiqhKC/+ad/mv7zL/+xCsL7YDCF9Qu/8yh8isXABJebq+npt0/jDS6n9x7di7INS32dX0K1lEhAvuuL8+n0NMoewdja3AhT0uZ4XoAIe4U2iKmDoGzF4O3EQMCB16qQ5/lGDNCgUUrlGi/COqQob9DjJgYGfhGBGN3UtZEjHgqdGIbXia4oEWPwOh6Mh28KYDjPQrUd77i3t1tYU0z49taGTK2PcYFnaZI/5dBVuy4uL2NwbhQa/ApyvGCNx0K53nieAoMno4rC4eXdb9vAjQCH161HBUnrqUPZccWhUODADk8puV+0kbTFuagCLqeJpij2Wg7CDTfRBh6sr8N90E5Uw0XVgKW8fFfBjQ78VoJH8ouW4Kt96Kld7is3e3EtfIs1mAvc6I80lG3w1cFYgAeu5JzhIAqcCJmYjZn68KwRV2CAoyGtR9nUUfip3rnn8i/Hoz2WaS3W/yaWdznKELwCfMHU5F2OwCRLCbS1TcGvEy7dVCnIzn9NyY+PItxXIX4IuRlPTnF5LF63DQrgy3i0jTAVoZdzL/zoOWSvEdz9KEEetUG8zp/8qz+dNre3WhdryHohLmIMTxFBSpu0x73rCOVf/+VfTd88fVZlQ5WtDV6dURuWtjfVlUbDSTo5Pp3e5Pr+/f3pOsrLqwtVVYFBh4eH06vDkzL5D372oyjM9rQTb37N0xWnIbjLK3emnXg0Ye/mxqC1JsL/3r27034UTRhWSx9m8vY1bMFd29RHWaWllbUY2/X85r4bwWOVkKVcONY/CgY/yqFZN1HAdpPShtcxWhWYwNzZXqtxZQR5Z8LB6AyaDKFeXRMqihrAgNtyyqzWg486hIsr/U3VSYSXt6LSvdGE39oM1oLU/Y8D0GUZ/HDrOwUWfYiCjiluBJZc8miEPyCqEGTqKlHCVfDeXrRlNTzaTldhb28vbbqdThcOQVS67jkYUWjh94iwHEOZ3qYFDkV2QVOyBc6MH4czTpJrLtvn2IHGzilfaJGjnj8pVS3ygZPf/KG5bg4nUcOYe5SUfK/GEd0uDDU4nEKLqjhJPrI247a8srb2GNBaJOFsbi4FJotBKWqZ84dYDn0HYexmQqKNjYRfW6+n9Q3WlzJj5qjouzSU/CJKfnKcUP8yHjL9yY31eI6ttfSfLtI/PW8dFGEjFrhNZVDS0FpqxAiDEV6jHzx8MP3kZz+twGsc3Cs0ueahG/awWssUcCj7yxfPpv/4V38dj39enBiQ9Xrz8fw8Fl00AOBGiHgZIW//Mo06PYlyhxHbMSQPH96vV8Prp988nY5eHbYPuJ3uxJ/9b//V9N57D6v4wv3rMElbMBP/4ao/BRgloBy8/E9++uPpww/fm+4dpE8fpT86PAY+eKlmeAMqW0sfIMtrG8VBm3mHSGiUYzBaWFmZcCS5l2wtCxc0dE9/Wv98J96a0RSZ6NuNOlMmONfjEaLgzhhRVAZZtPPwHoUx1iAMD6hceA5XoaV74G7EAHEar1PvUEU54PNddCYcPo+3V8dyeAiJQa8R/ut7i6YotbIbMQDDe3I8BJrSRS7Ds/393Wn/7l66SjsdA6AQZPYwPCRL6XrWy98kr7Yo8yaO67U+N1rOCZEQI6lh8CKJLtuGPB6eNJxJ29xrygP8Rjc44R9jOTuqKrpyyVpeKIKPyc9Y4R08dDc8BIsezMZujgbQFloMd3U2TgCMYpr/0lVbf9w+dMgOECR5GFZZO4V4BlT0RwgSTyTParwG5de41VWh5BSCxhquEw4KAXFo/3aqJ7+4k/B1OcJE6QdheJOz86v2pdcj/BRvDkkMgBnsODw5S9nLKEP6t/Fywb2EaWNyVutG2Sk4ZQrOWo9QX/zms+mXv/rHECK5808fk/VGVEICdsO+yBU4nrX+EI5g8PivXr2cvvz66fT1l99ML14cTseHRx2oW1uNR793MH38yYf1tIfx4N8+O6qCG9wb2AmlMC5nqX97N4K3vx/hupyOXh5NL2IgMIbne/LNN2PADaMGuqVpUA1vQu+0fznKo+2UaY1Sy5PzhnD5NVBWGkR5heZNyaS9y1Go/b2tGtY7eU7QT08vU46gjDCxGGOi52nD3s5G6QGXe/vb6WJtVoEpJDpX4CM3TfmhoAR6d3evCoanjMnNwnjUw6Qeqmqc4yIelxKqi/B6LhWfwK1RCa3JJaODVgDVK5LN5PVcNLO3uzsUYgFDnrOzsxqqGqi0y7iHyESXkHLUWyfvXC/wc3Pm+odCDachr8dkq9SSufkpfWDkEDEOuKMsenw/HyB95iowyd8snzUMlFbWwIDvnchWAHjYnzvRC92067TbPTgpRxqWNzY3HhdIjo5UIloYTEB45qsUEi5jnEowZ4iRQaHXZS7ldItlWVtbSri+PO3uxRvssMoGJhBuEOz76U2U/PVNQrjrjfTVQoR4e4Mc59cRssBkpa+vcwQXwqmfwUPoSZ4cHU2XUXIHMiMmpqQZQWU0EhEJyXWU52//+m+mJ0+f4nKJsMkoVPiE/jeFS4gM2jlHD1EJgrP0hE8/++nzl9PR8cl0J3n1TY2SMkzwo4w88OdffFtvUOENXvC+uUxUEpjGG3ioT37ww+mHP/lpR4a/+urJ9Orl4fT02Yse8+AexaqFzx/moS9bSVjcJzxtK95FAbW5otDGi1hCKXCCK0PJYCsBx63gvh6FZrCVPz4JzVMOT4XKFfqFYguFKf9mfrc318PTlIsnvriMsQ0t9rY2p/3deEKRTBIYYDE+O9s7GBL8YvRTZihz5C0HIVYXBURjswlr3/OI/oPbVYTasyp2eEaYZ0VslyIyq7+Ob3i+G2+N9vV0C3pcxTBzCrHUQ2FyG69rCCEN4aTKzOJcGh5RFyA4LHAbj+FIWYdDeVsG4KSVRFXb+3dTZjEgnNToKqeu5EeLptY5TuXps5oqeiiS8CDni/63thNj4zyNZpO7vHIGVv6Wd3Z3Hhu0qMKmIhaRYrNQDU1St/CRJXXd/inVosxJiMwSto+VSutheZBUQKlj2GNF079Zvsx94UYK/UtKHqW+uYmRuF6fLs9XppOz6yo5S74VKythLE/A+GDU8XE83bNn05dffDW9eP5iYaERBdoIR6neNAz/m//4nzrIhYBw7Wg4BUmb1SMkQxCComVVhtQzwnJMTZ2hkdFTlnd/ZzP4ps+6GHhBWCG70k+fvhr9X/UHlpH0q3QBKBc4pmk+/uGPprv3H1Sh/+mfP6thoEyEbvYQIw3YEBe6VrFzLVLogArlztFBqSjPEJK5bEI6+VyX5EMI78bjUmh8c30VI3R5Oc6bKzDmMRaKh17r6We7z6uqY+fgPuZ3VoA3v01kr326Fx1DUDYeSygehIPvVaMXyg0GWUM/8AkxQyrp7wc8LMpPQmzgi4yShRGq85zGAGYDV/XtTII+8348NkfEk4/HZm4u0s8+j+EwYJp2pj6DwIyLmtGoB2x4xt4bSlYgxW/IdY2T6xxkrEdLIDOc045EKisr6+3OmnqsR76JYVGmSJH5EVb3OonsvQWUpFWeyae+GvnFtVC95cGl7Is8M/zlu/fuPvYAEMwfDYklDdMQ1n3erZ45wMbA0wDWsKTWLP3sWHOWtf0+8FOOtWO9ySWhXFu/nbZ2byPQ8f5RcuH81RVz9DspjHvzmidfj0cUmmGiuscAizrVJTxxvHj1anoexf7myZPp24SxxwlreTjjA5r12a//afrlP/76LQG2tCe4S+5R7IariEpz/Fsc2kWxKbV0J8+3InwGyQgk4bxd9G+cn5vnTcRB8UL1Ksth8HmVfjMPyaupKvZgehacv/zii+noKH1qDAnt0J0Qz4pdL03AXOR5cXTIn8NAH0RNezUtaI/hS6HZ8E4MisE4irk8HdzdCR7WDqyEdic1VuVZcFLFuIjgCf+jSLNBGYofWOub02680bdPvo2BvZi2KXJkQ7sIJ68q2lmN1+JRGjXUwEB1GCJtNRBJycjY6I5Z12Dwi1HMXe1KjRSbJ2+onftvopAbiRz0i4e8DQWBna6BsRDrInovB9peBM+rRG41I4t7NchvDahmQ9AA76BVZ2QGQd1OOfwcZfGnPCuG+U3+nvuX9m9sG4PwrLfS/qvKBflrdBxaqq51yqOCnBdm6ujD8aA/yjkv7oHI6NZzI3qTfCOvsssPHtx/zFsjrEGt9inTYAzhpddjgfUbWQdWWCM1UMNY3mH1VTY8C0Z5Jqw/C+N4AgygQI679+5NP/zRR51C+9nPHkUgY0lPT4rU6JMvkJtT7gVMvGGs7rmwn7U2kp6QPUwcXYEo69ZW8l1OJ4FFyV+9eDG9ePo83vJi+vw3v5mev3hVGvEQWxsbDf2cE64xV5v6B+0GcdNGilgG9N5QsrXQ4uBuPEIUHv21n5cwFaTr0HAwaIcKafcidHp9mTquJ/P04J0nr771kxii2NCUv2qdlJpCqov38TsEAMPhFoZFyUqj/IPPRqKiELwMxny01gbHm8CFH5iMsLS9vdEBM0rNyMh3epp8KZ/TplSV+3hqoGo10clG6zu/uC7NNrZ2Ot327bffBGfGaGU6j9dvFBDeV+hTdi15IF4jg1iByRuCfRHvaSSbkEo8MRrN4znFIf8zLDw1OoBLoHnFu/t75W0VIsmiFt4YjpR6K6EimoFDkRjdy/AHPdwMqD7HH89nxZzPZRJ+k/UajvzBRaoHpQu5p03gaTEdIiymIBm1PkvCv+tLi3jwVOUM9aLOHJURdchfeMnT85xCVO2hn3qlOlxyAY7HSeiARsrAZvng3r3HBISEmUOLka7AqghwAlErGSBj6mQoIAKw/obn56kOdahU/fCqFWckclH0UsfDR4+mR+8/qtCB/fLwVZhxNC2vXU076ZcvGZIH//dG1+EkpJqm46Pb6ew0XjL9c+1eifcx2qlhvDGB5bFfvHwZ4Xsab3kUPIS4uhVj0Aw+CHqpzfkb9COEQ8G1uX3s4C7c7hxr7m+nP2m8AO6ra2Oc4eTsrIYCldFB/5qiKLB8R9nh9SiFNhBUnh9CjOaYgnod2g068SI1okkdcMlfhSm/VazAGzgbOItyBw+Da8YACKOVa/infyZhvkEiOrC3u1Xc8aLPUtfZ+TBA6m37+yR1B+eOH6T9+taMNdz1H3m1r778qisF08TSKY/72/lp9KpAwi1noTnFGOHmbSObKmseUk0RlKjIL+Vu3xE/8ic6oxCUn+HkvZdWLFQZ9x2tP7Qwu6GK7Rj63CwOaWWPmwiP0XAJ/eA1FLu3movxoARDccnBUGy/lMc5T15jFd4Br+4qbJJz8u53HELwq+n64rTP53zlH3ov8oCLNvXyDvmg3gpa5C29pLfKvbie8xRycF/eP9h/DJgJ+/afkvYSyniIqd9ZzxAh13ci1NqsEgeFEfIKiTGFYMOLkBpMSpEKRImf/IkPu0AC4kh8GY8pxLZk8TaMfPMmodTuNP3ox/eiOPphEdCxKOp3Eks3ptFOj5emo0MDYITfMtchVBWkMI4nQDSHRSW1vEHS/esw0eAgOadEc2K0GKy2P88oFmUUwcyLbtoPDfyLtIFia988hUNJjPCbW0VfhqICEDinPPvZ5XTBowYHA0PnUS5M+64+TF8YytxwD/kIr0P/0WCW6UERx+lCOZsx5fBOa2q0c8uheWYD9IONjeDdq6Pz8MkAjUyDT3AckZhBrdAoCgQP5bTh1auj6er8rOHtZqKf9Sh9jVIRL2mnpfQrVYjmx5bHBgH31XHz5no6t/Q39c9eSAhOsdFKHz253yrIbCwZbFEaBc+Tts1cNLiu0V+4ThbNYYvmVElxtO8qfBLWoyO47oHtd7Q+bfBXesN3yHjPQVrUU95A2vPAkQcOI40TytzuR/6cv7E6L3AqR4tcxaGw6YhoYBhr9wsl/4HbiBj/3FrgA1/69rYLJhU+3MP3nb2dx9cqDQSW3Aho1+OGoZA23QUKpevAWP4U1BhJRSquxwkhhYQIjkmUshjALoV4Y0sxGZA2MH1T0ybCJoJar5R8+/s706NH96b1jTR86TRwL1LWQI6Bulb7eykykv7eNJ0c304vnr+ezs5GtLAVj2JhRVEIOsJwkQeczd024gjerkcfCpMGwQ2n8Zy8knDTVBWjZK4ZvQiQ8JtHkQwyUgBCPisj4b0Ig9WDYr2OcFGA2eDNh3qVce4Evrhp8U6ZHNhMV3HLsRVeWYbZNefGMsLU0luxNnjwCbhWnqQsgV8OruenMS7n8XoeL9pN2dWfy4a312m/EXHjChaJWEfgGWMIqTtLa51XN0jEi3fglLAthceBMyK4tDnMGTMIZjtizEMzeBfP0At8YxkuDaDVICWJcKjbeepdj9xY3VZBT0TXSDECUX5VnmYjcD2WzcZYuNc6khjR4WyGciHXrNjSUKfBN6mRTeVCO9F03C+v0DVle557cx2ulRvnukYWAw0c5X8LXMQ2w8sxoqgZBvxyngcDp4HDomTyDeUGC92V0/5ZqeG8vLmz9VhoeR0rqg/QUcdkxOjZ3QPaub4oCoRU0EGgMEY/nFCNhqtgjN6yrO2ru5fasGkp8pnQP40YiyvaGLDCACGu+WmeJv3+KPxGwvTDDox1JHr5zXTv/ur08UdRLCPtMTSpPvVp6u+nmxvefJpevXzdFXAMAgVeTdg+xhEomJcJBs6U2B98CJV2PXhwkH7imOba2ViP4L2Z7u5tp+7FlE7y6teP0fpFnzyEoGAldNpfJYFPrgnVVQwfz1rhzH3PKXDpkbJkrEYz9/sSjTw5KoDJ6Lz8iQJt8XLBSfjp/iygIxHoZm0bKwhJDDCjzQvHnjfSGAo450EBApPrFMZTxkO6YLzDs2VCmbyRjvQnY5STR9V34gRu81zYzyE0vMxB+DZiUEV2l1cXaf8Yc6ndQpwk4fXcxg6gxfDApK1PJouHOBz4lmYpvxEZuaHYzVdbWfzA0eUSTVTIcyCEMQ9TiVWw3NLu6+DqtwQEaD5NfnzAxzEuMPTAfQcnBg9F8K6y79oU1EKHgM1Pk7z0pTebBn/8950hwAfnw/N6Bu5cQjNUWLj5Ix1wQmv5PChOYG7tbDwGyBpgoakQFGKjzuGd1VEvZ0wxDQRw9KuHddKfnYmgXAdRLERYCKzKPFiPp3v46AEcQ6wISA59PYi0XJi7ub4Rhm2X+BS7sCEaQpp73dndmXb3Nrq0dWfn9ZgrHz2IMG78/m5i3W+ul6PoK9PJSTztVboJVxHoO2kTOka44BnWFYcH9w+mn/7k03QHPknfcqOryzRB2vCiA+VM24fHJqim+yz/bDMbfvNo6KEYQ1HlCj1q+HLuVwRk7TIjISe6hRjFhfGRXx9B5FFGAuZ5KlkL7aycO0rUMVZPxXClfOtKHuE9Y1JGa1uudTfAAL8r4BbwGm3FUHSgLbDxFx2MistnsE3W49OLwtKvP4uxMz6wEc9IXgi1PGMgcvSlry7OcpjmHDKlGyBiMWjWMYjUhV7+F0WoGRxTkfrpfRKE/PHC7TLlXj17jMt6jO2QjxElMRaMh+4SmlraWwcVfMmQxp+kC4FvaFCDLqr8naQdNa4L7OrglM9RTqQsBQRD8us5g6KsfMpyik1hJD6gyfeTMsrWEEjyJO8wDIrFEOQX7krOtBhQemfAoEvh18CZjMWY7u1tPTawimjmXu8f3I1lHEvuNJxnY0VVOlsGAIpoDtcEQryPWRQesvpEc4ICb727uz3t390PnEHsls+fkd6GpUFohJMDYZ5cqG764ud/8LMSGAMxFA48+XI88OpqGLp+PR3cNW+uoRo3jt9NQrubG4Zndbq5XJ9eX+lqDIJ4O+mP/vDH049+9EmMx24MgPndMVd90jnqYXzaXw/uhK2LHpL479XgFh+RfjuPMTxQsjVSoMz+3BtCNRg1RqbhPBT37Wi468CtwuREnpFGXq8bUt6zeCAwPU5Oj6v4ujajHKO84FXKNRpZY1Qt8hhCgAt4/ZanIQflCPeLA2U5WfSJZ+MhSlhLCD6mlRjVmxipeFyKVg+XgqFDccupuVwYXpnyyX0hPnrgo7yE1zkeW7fgfCgODMIzcsgQhv5ormvEycCtEV3yoxUjwkDqHt092C+u6OUeJ3J2GmNDsQOTITCKr4YimQOd3QEPYvMofvFoRrc9G3m/44vm4jeDrBs4wm/EHJwM1DyfU+vBgDwtvKQxxqP2oVfNsygzlHv8Nd+i2gFj8HtEwnmGDps7m10rLmxkNXd3dhPCJOwMsYzWDk/Da7CGo8+iMELXK+R+bjVfAeaesvqU6lYtpO5EsR/cv9fwiYVB6KHcMSqp18qk2XsTMtYOogRnPbG3wZD7KS8E1zCvBn7x5Jvp6PS8jLIkUpn19YSoW3ei5JYz8gSUQ19H8xfUeJsQN6HzdQzZZcLaixiuSQjp/s307Nnz6ejlq7bhPPVQAgjDndJ3fbUYvwI4TXsdLY5RI4BR2KsyN48DldeltDwRgSXwwk2JodPmet78NqRLwU7l8SjA55g9uoG7HdM5ydsuD7onL1rCMben/f2DMnssYsHhwQueebxVFcJoJwQg+TaRAyP4q1UevNNGPE32RZcEMb2ptl0eko2j46NpfSlilzamqZURSlGZgUcwMMayFiTPUh6u9bQ5KoxJphLrsWNU3IM3BP2qA5958w6gRV4AGRHjGNyTfSj3GEnnECg+4YcnJRuOKtFSDJAXjBi9th4+EZZR51AqCrf8duXYOEqxnJblee4n4FoHBNBr3PBD0cOP1OnWv5TwaBj60O57mYpzPbdns3Jr46CVpG4VtVz+wZNuVclXN9YeA6Dhcbxh6loaa7XUBehFVDg2FG8gDpC+DsGrt14IJhhsPG9N6KqcOXb3tmrpD+7dHQ0JjEGsGZmejpRrghkArb/0y8ECGoVFTIQwX318clIFuVqM6mJmKgwIryYmpN+IYdgQKdyZvKW4selZmJp+FeX93YR+r16eT19+fjj9+lcvp2dPz6Yz71lHya2a0y4GcEzjmU4aQpIqm3Y2dkPQwA3+DW3ThvVFJPO2b7hgh+SawmsvBQZL315ijNDJc6nKFk+r22C6joKZs+0ob9q7s4nGQzEI+yefflzanoZG7pEHtBoDfOFlaCiSgI7BTLp1EwXWBeh17g+FY0hGf1midAayhiyMEFs4fBv+bMWY6ZcfxyuWCCk7w6iQp/7Lm6sRSucu5YR7B8jCl47XhKb628PDDlqhmeoZc3kMzGpPmpU+fiIv8HJN7WY5ZIw204UwRiK5p82UxIYZVtt1fCHdNPVXJlNTOQRnPAwec5g82quSgWvrKv+G4axBzQHloYBzmaEv/Rsk8W9BnkBZwMebocADdvEJvmDM8JtyPgqPegovlwYotV0ZOC+vRLHdkAECZW4E8U0aTYEQCLFlLoLJq0EjTBoeop4lZUZYGaW3mix55NAv/tGPCdlSCL1ZvBxvG9pc4x7it44q3UIYRqYII6QRIfcDy/JE9WoIWAx44QYfuBzsbkShd2JohOcbo9HpU/PmSyunMSbe3w38wBqbSPx+Mp12ebE0HR1FWI9Tblp4MCvL3oROwY8hY7zCypTgvcEbrwNCvezIL7rNSWgIn0XTaizkq4Ju79TbS8ggAmh0Q9hyjcmbed616waDIqCUx8CjXzMH66trnQs+Oz3Ncd5pSrBmZS7v8m8jhqKGAP6pwzgKg0J5XkdZoKzro4x8jRhSkGKOQbirxeChwcX0bVPuNvnPLkUy4xXX151TD6DgHXM4nSakV8+GHV7Ikkry/G29oZ2IYry2ipzDaUg8tbEMV4xqWlJ8mq95g2cVQJdDG5c7iyEDvmn3WZT6+PisMj6iSve/4/9AdSjTvElH/o1n8/+twykekquhvEOxF5ml4pXyqddf8y8egSPvSvioAvI8j0UMw/KdjjWlILpJdAm81g3uok71MzStc+vu7i3mURICB4AwjXAoeNE+kSmIjTKzqFXxBtFHH2D0gfTdGqLGk8yNffjwYNrd32m+rR090AUiRXwoqIUUhJrg1HKBH0bPYVJh5U/++cBrfS4CcXlxPp0nwjg6Oa4gf/TB+9Pu2p3p229fTs+PL6YP339QvOQncEdHJ9ODKMd64NzsbE0/+8UfTC9eXEyf/frp9OTr4xCnzfuvpAj5ajzbWugRA2HHGDShQEZ0GSRenTJIBroM5uiXYpa+LuODbtbjuMdAWGK7nnAejUKO3FPmIrwYkRCDiXS7MVQW4jw/iuImorAdUI1YQI7QOzBTpxDwOB6bh6vgwZuRSP31+pu2IkrXZWMj3YfXiYJOy2sGVr/Vum5jJ28SsRw8fTE9DFy4gTVEFHfGb9u14PmsiHOSa/yX3ItHhK+nhTXSUIohrD1flGlKJrz2TELbkUXe7+D+btJF+Sz4PPhvfjFtJTS3nv/JV8/S1nhtnj95Rr1gzB5YKBvjuTleYCG7lKZOI/LT6AXe7iVD+dc8BiFjkCJX1ZXkYwvzKPxINOUk9wor5dfSndqMITfYaIzC+97zyLklqHcIR87fGsDUphz49KWUyz+Go6d5JmnPnYMHB7c8ci1cMlDyrU5hjL6TN61Wl9LfiicwoDb3qdunKTPbdvXnMPUiDF9YrhwPHu0XWWFP97jK0bnyhJKIsBIDElBBPN5Og25HaAJTMPWpwaGUUe3mdah1tEPtjqTU7/W8Dz/6ZHp9eT79T//T/7/TJDz2/YP9hqqXV+fTqxfH0w9C1PXgfxPD8t6f/DxMXJ/+8VefTV98+VX6zmGgwbWrMOP1iBL+a+mOOfbVGKe1KMNGQuhg6t1mDDcFJhFEoXOFQN+OYiNR/nhztqzvD0e5JeRDt5OL0/IGnL7KmWI7W+sN8YXElxc3XbrJ27H4FYzUL4wco/d4ZhDQRgRe70NmYa/93tIHXjJAudGpv1dHx+Ur48rQM+5geoPu//bq1fR/KWbvXvq/Rkn/xz/+g2lnbzs8vZy++urpdHjEa1PLhZyFLyMaRb+lKJ392+xqQ8jkG3TDAPT0UovdYygZWW+2twljo8B53qvo0np4KwrypuGo5820s3/Q5afe0pLoD4W2/v518ol+1Umn8VJUhX9j/X/Oi1Qr8K9wR4qm3D8gTMNbUlTPNAOyKpeGwAxBnEe05WUxeCbguqY8wiRss4Ryd3utSnwWBTu5PGsYZsTQQvyXrw6nJ0+edqT5Jo1vPzN9HVWwZiCP5GzRz0zdS9YuNkV1cmt4ieTokdtprG2Jnnz99fRXf/2fOqjCIJmuAcl0nkGgEkEdAbKSNpoTtVPK8xcvqwhra7fT+uZFBOFseu/96+nRe1EmxpsF/ReSUP7qcm26ON6eDp/uTEcvN6fzM4spopwJ92za0KTegGB9C0kbgswM1X5zaNuwW8oz0zrY4IUP+5Ptb29EqVemVyfn7fMzxgRCP/fSksnwA6/ahxROp66VeASvatbKp7Iak/wauBJhgEGg59V2IiK5Zg8w4/cuJ4a16wiu05qcaxsDLGlulTP8mRWmPEieOig3HM4T6awmklnf2IpXNx4y6KTc3B8XNc27nYwUPYnhHN5enYvoM3o1l1GPg6Nb29js7xjE9WxEqXNYP0L24NKHwKU94XNhuJ+bclO59BcpFy+TW3ng3Ny2a+GY34Y/i4I9ByD3wXftMGi1vWMlWfo3u4tXG0NQry6eJtQzcIGC5/l98uTb6fMvvpoObVgQQvQ1ughmw9giyrMZ1KEgPBgSDMIMgmvwYlCvzBmKf3j4ajo9P4tSD/zGOu/ADBArxay6Ogt8y9Fvo/gWmHz++dddGsoQ1JOFaRRha2s13n55uv/gZnr0KGHx1lH6ReehA2sMl99NoedN+opX29PV6f704vn2dHK4MZ2f6v8NGg7ajWkw/dwOYimpEUmgYp5BLHgwsOdXr4PnWCUnhNSHFwV16ibGYCt9SZFSvUkIBcY8IMN7C+cXQVmNM49tVmPwc7wSG3JOS6HZvPioI/5JFP5dT9pzmvD7KJ56TMVGaRwh1PcVaPbAYxHNHH0uOL3I07zkTt7cbJiMjCUlWCPUnpPzsaw09XqWeyNSXUSDgwVNntGdjk30jspnWCMj+ZGqAzkdujDqab25XN7e3X5sUIIPcW9TvyqCQCDsy2UQYyWhAuQpXD3Mop7vV3BttDOCADBrwvN0gIngqSk6Z7DCwIstbAknWIb0bFygj6ysEBAleSnJAJZqxsshCwOC2HmmDq0YaESJ28Db6dmzZ/VeFqbw9hXMUTygTdOkj2qYPG1b29+brgPg6fNnHV1krNRhgY0BKGEv+JSkWyelIQ23l3O+fB4QrA2LOXD5/aQtxh7Mm29E4WOJc13rOypse5x0dVa9gPYaNBp9bIhpGk9sRLsrzcIPeaRPP/1o+uSHP+x0ja15vcVU0uYZ3qDT69dXQTN4vr0f5V73iuRq4F12LEVetr6j68GJQRfJ8fz/LkbvT1vbu5f+76HT3929W57a9JAx1D58RadSpL+hO+XOnz7v2NhgyLR7I8k7zr2GWbkCKKlKH57lv16/TYvnc5Jf37q7zKYMeCAC23D86irOkAMc+dXZroJcKeuPPLY7nEI1JMk18KAHEc2N7c3HXaGUW4Rty/xQ0jwaTtFV27nLZGJkKgBFZjSwoXncAYAgXSSkZCGPEt4iIjgdaa8Az/gO5LYjzLyQqQyDN/aIbjgqSkDkANWoOewm5PMUxWDOEHoHqUXYi5OzvoUkBOd9up46RuXIW1hVCCHPyrT94N50m/ae2Q9LvyaMv0lIep6yCUj7MgLcujIsdbEPa+vjpQve0mDjasL2tfX0tVbOp92dRDeCg6D5L72dNhLmxyPerEfZ1xMyU6IRao35W+0kXN7WGnP0nSLMXz1D/gnttRcdDQ795Cc/mh48epju0Ea3WwpPA4chpeAxloFpvbp13kxiR+HTnhE5xIiFZqVh4OGJqIVCd9At9wzC/fso/7ur2Hemfzgwr+9dAxGhQbA5VF7wiXJUMXoRegwZD6Gq3MJoNBt0QkP3RkRDsRAKJOdVQRmT/D9HRd83ABtR7NG3jjwyCH3GuUYG013V11a6PIILGOpxdwEPMtWRPsLLBc75t/zg4b2+3dW+WJSJQmlAR6qjxdbctoLcE8Kx7F3umArdE7oRAu8XU2ADLmrSl+1AzqLBKuwIsIqTEshMa5E+Ilx4+Rv7g72Zjo9Oor/e3b4fL7YZAlqEUVCFA0SVPGW1FR68GSLY/8vuKrzrxx88TL5EDlEO66NPzscqMUYGs6Y7pozShsC7vbmcjuOVOrcZwYfX9mYUO9oMbhrcX7UKg7WCwnXVXABAZ2Utv6s3Cd/fTP+7//0fTw/f2+98uxH5MYX3u0nFFN300tp0dhr6xlBba61hBhTVxbgYQOsy0tBIWxcoTXu729Mv/vjnwdOrqjfTzs72dO/ewfTwwf0YnDHlZVwDfzvtlUIwqTFeCIj+O5pWuPJP6G/uGj91x27Cy/8hQvxue+z9Trf2rbzQwnjGrGhkrnRJPjJLnmpEk+pYyFzOOY3OF1Pq5DNmVB7maJe0xKN8zZ1jpJHDf/0/MpN+9GIpbj22lPrnMa3LM7MTlDz3Us8cmVUOk5Sh0FJlMDJBHyqfizzL9w7uPqbQ3iDi2m0TrKCFBL6sIPSr0mhoGlnFphhpIEFRRhX6aJSORex7wflVB6J0SSPlG3hPWxHUj1LPg9SLNK/rHQxsWAji9cAN/mm6//C96cMPP5yOX70sUVNB7gZmcJJveDcEH8KIltGt9iVNB60nGjBvSbFval2XpnsH9yL8Y0+sjh3kCPViCMYaYlshYSO8heJmCdRlgE1STXcwzbW6bY4AFty1t28mBb8/+sUfTX/4i59Ov/iTH0y7+1ZCvQgdY4kJRCk2mPzbiSdgmMy3RsnPV1OvJaz4sjQMTb2pnKz5NH3wwaPppz/7UYUSVPO26U43zN7d3Z2+fvJkOl5s2eQVz34gIAXLu/B5NYd2lLYakF/CwZhYx86YaNv/kOOdVey04+8tld5I9Bl+dqAxhj+tfasI/T9tR8cut3UPs3M2O6OyLPk945WVxc86G/cW+USD4BRejrkOsJyZHzcAl0wjX+6ivdJWxNlGS2JgJMrrPFKZq+QCbwG7zwOHTlQf3Mjj5Z3dvccEXuitAe1TBVkIr68aiuexVDCABIWBaC7lH2/+jMZXeVOO10NA3qzKQTHkz7VllFtRnoM0aC2wb1LuMnk7DRbCN/SlhLl/9Oqoe5mZm2ZYTAMwGl4nFMYwQG1crBWPqB5hp24DwTYXa0DMvLq1ztY2v5eQ1RjCiEYosbe/Tqej07Nh2OKpjCgL4TGIJ6QQppbgwLR4gUQ4hwaedwVaLtHJwpGVZW8nRQnDPG+tHUSoHj26H/xPpqOTZ9PSavrmq1fBZ5QxFjDT97cToYjxu1mpkp+cmF/W1yY8o70/+/mPpv27u+GgbsCgLzqJfk6Oj6df/uM/lZ/oBH8DaZvpTgi5td+SzyKfuqxxF9IZVGOseGvPCdW/jyK8q4r9P6YtFLt8Tzu7B7moKKlfMaFUkRuJUo9R5zEoO14LDT04gKSxPHQOyUU6yoVufZqU6/E8zieyYTk0/UDX6neObkIYnN7Kb+EoGv6en6VOOIE1wnQPq7KyNt8wFj1ac47cdz0cXozT/t2DxwraBWQeRreSCEDrhQkDj63hKjOwQgFyux4P0N00ID5w2mPdk+kmlXg5AyFXIkTmr3cSMlor/vMf/2DaT7h4FkW7isK8juB0C52UOa/XjMVKw3hP3QGN5FEpgKmjm4urjq7bN3rNe9FBREMwgrfCiM+/+rq4dZO+CKTFCIyNXTW8D/7pJ+9Pr14eVzkxUlkLQ1hN67+F4nt7VslZdTXCM/3qi+BkRPUi5+o1tyyq+e4bZbkXWtjPXIRgo0Lz6hZG3L17Nwq+P/3zrz9r24ROSysM4OW0vvV6evTebj0xOA3Fy8XfTozX9XX4c7kcY2egbKxtx9e79+4mEtnogI73xQnU5599Pn32xVfJM2ChST1DL8PDtJM3VpcXa7QXn22oj7/De/HYV1Hsq3fYY6ePfe9ejdTw2IOfjJuwmnKQAXTQXr9INEJyPGIOKCTPOUJ1eYxNzcrp2SwDdCgC0shta2cv8m8feOsiDFIPuuZx6o6zqKEIT9zI06s4mT7MuXz0kMOEgHqk+X+4089GFIExHHB0L+WW7z988Pg0wmcEUJgHaR7IQgnekyDMAw1GmBu+pjIrl9LsAtyPAdjLqfd3XqfM3v2D6Sc//Hj66Y8+jSJ/On3y0QfTH8Wz/Mkf/Wx6cHcvHvJ8ehFlu6mgDQsDWyPZiK0etIGvARxKAj8Ie0GFgP/oxz+efhD4HdhYEPjTTz+Zvv322fTkyTfTboyHeUsjxNYub0bQ9T3v3LGeeYw8t58dAlJwXRCj0rchtu6EvjUGYQTijfyjSyKqGQpyp57cda1kcIAfI9LdaIKXAcHjo+O2Rbu/+fpJhGpYZAz1K1qxucTO7kp+V2J8jF2kXbdj9Hu8fRYAv5OUffHidPqnXz+d/vJ//vX0j7/6Zjo6GvuA2Rr5r//m797uXiIvj24swEBio6o80YcXkbz/4fvT3f39RCyzDNii2fhK2h3a/7sYvHdZsf8+vB9jOOTsulGgxSL4IglzqfNQbGmE2SMcz3METOYReg8lVtS7Fe5T+OYjuH0SBYsu+CIJBUXTi3hjnl899cSpY/TZh7Hwe3Pl1dgFfMgt6gKz5ib3aoDzVwMThqqTPJbJ+ef+8r379x8fR/gkjKf9+l/W8hJWAEZ/UqOHoAPQfkTqMf+9ngasAQ7pCMMv/vQPp5/96JPpwFcZ4qn7Gl4QfPnqePrVr/55+uzLbzq4hUBCQ559WKUoWZUtkQGYsXQSS0QARRLCdA2hsPcfPpoePXwwPXhwr9+i8m7wZ7/69fTs2cvAXC2r5Dedx1P7JBAPLTRFqIZZaaMlmX/080+ny/PxUT5znZbH2vPMih+KPpR60EE/9Syeuy9uRPG6witeVhsp1GmUoG0LPTqvnPKHh8fdI8xXO9ttSVt5zKAx3mBryMs7pDuUtnt19vb2Ih2Fk1h9G93jw/Cu82umv5vOz66mb785mn75n59Mf/kX/xSDkvxW8uH3He+ID69DVvFRN6rz9amzL3LEQKVrFuGzD9tYLENeGfp/G9q8s6F46P13+/GcaSv+Wt8+pleH0o5wNr8UA33zTxKmNyTPnzx4rQwakkkvwfQzUuSex6cQhTES+UJH6SLRqNVqy+nqyYe2c6qSBp7R8IHDSNU/uMSRVcml/Pa0fAxzkp3ceS6/azCW9/Z3H4/1yDr8hZK/BHhhLggEWuqrfrU2gwxd5BAl5qF8HO4minSVe3HlnXZ5kTD088+fTF98+e309ZNn02e/+arH8xc+iXPSvrftayxn1BdHbHWamKdAYH/y0SfTUholpIGa0IeCE3DTU09tNXx8knZ7g+xulGp7+vzX/zRdXOpPj0+ysrAIbNTeu8DJ2vemS/ASKUeITZlPFm8lCeF902os1LCn2dV0Fis/dukcxJNmOaAwY6291Xe6L8N6iwD05+RX30nabQDMdKAXSMgVWsNbt2c2IBKvbpGNOna2CI/XPtNdWrsMvcKvjeXp43QphJXX6fP/S2l8kCF99OvQ4nIj+bQngkCBY4AYFPjjqZD81dHR9PLlqwq/973BZqB0Hf5too13WbH/Znenckm2tEcXiTPR1iFfw+uOke+FEc9fvzaTZ2V5GV6xqTG3bzrH5K7yXbTiYfLNCgpeI9HwfBh7XTVOMTBlSXYA5LOFUsP4pEYOyT+y5H+3wZZSsAY6AtT6WneO6ErPcyxvbK4/5jE7ZK5QPIlFKRqrYRRjWO7FoFmSa2E75ezmC3xj7hm08p1i4d+zpy/qpYzI2lP7JKGPkPg0AiJ09j1kU1lWedWLpiyDwyqexfMg2IMHD6bTw7PUrWtgs3mrdRIiJY+XOXzL+6wfDXg6ff3Fl9OT9K0PX70KM2w2uDYdHp0E7nUihghwcBd663acWZWW9gqhtZEVPU/UYl26MM2bZKIMxPJdLkrWLkFoYGsj5/rVIpjBiBjCMPkgXkESPZe4gX8dHG3YaE7fSjiW2Uh7FThF0doa8dI7BMCwGhOLRmLs9OP3QivwupZACp6f/uDh9Gd/9vPpv/mzH08//snD6cHD8S0t37mejcNvJ4JkIC4G+CIRx0n4ZfZv0RUSgY03qhjSCGCOGp600yDkv3uHF6hQ7P8YGhvLYTwZWyshh9eNg4ocz8o8J0tsq4TC95RHIwduK0cThtIPGWoq3+XTjRsefITIQ3fWYuhlcl6F/F66TSTnXo9cDye7CNkXWecSVepiMOD0L7/uSOAv7+1sPaZEMkntr+Y36FWpCWmFboHIIMDYGqmhZgchxsfOBqHGBu9GmU8jORZ7OLp7ZOHp5Avfo6hRHp4VIhTEktDu3JIQ1cj3VhT/5DAeOXViiP2k9AFrYdPe4cFv6lGNBJ+dHNXz2MxBH8rH/q5DMCPlFJUHpqTynwY/eBhFhjMltHVP54ODL3wI9IvU7zOruhsMCuIgaoouBsqGIhoXEIHoQ2EG2N0SOLAYL7RBwxrFCFJ0M4pkViGRS9qJ+p5XeFKHcnD1Hvv+7lZw1+ZEGguDYNziww8ehl43iVa2p08+fTT98Ef3pz/+kw+nT3/4IJHSF6Vb35QrR3838ea6NHdCq6UcEcLXA/e+O5BjLQax/b4YxP/+7N312PrYfxmZsFkHOeKtzZZUAcIv7zm0r0v2F6TCX69U9jIX+FIdqfwLx5cjO2MMYk5Vsh69KC2VIws8+tbufo2BZPq0XQGKS1bU3ScjMRCtLwfFrfzkjwzMI/Tq0oY5tTsrV+4vH9w/eOyiDUsmQtqR7wCeQ8OGGUU0vwAHAxa+HinCx7IZibVUk+eyKOIkhGMAINaqv6s/tUUpglwVNL9gC2WtOruJohqgc1ymr6p+cKpUxXP0aVeWxvu/bdw0BoNs62tUG9zlaM6YWx7KL5RmZ4WYm1W0hMcJj8wGGODy5pM56cvTk76VQ5gtaLH1EMNg613li2vyUeT9hHeU9G0/PIS1XFY70EVUQJjW1i2M0E7hmzfMEtan32+AamdnL7Qc7ehil/waFxBVEDpf2RCKG40XsTBOBOvE0sjA8L67j7XBg0ESVZi+++zzX8c6X6TuqwhueJs//AqbFxz47TRG3G2w4dPHrs17x2ClLnW/y6F4FTtGyuId6TgRJTkzMCnypEKiOfIvLSQ2/BiDbRL+4DMllM/1UPahGyP5/Z6gL+hs9NqilPVNkVd4HH4ZkDQgXD/LITLozT3qmj326B4sYObWiCo4jfGbzMk7l83/2pB/6W6NgQA3TTMRUMrTgZqG5foFIxR3T6Vdz93G+XnTnSr01xrSRxir0AtcWs93l03OOyobAIR/jD4O62k9r1cIr9KfNcAxCqRE8sLDNrb6fpK5wvWV9WkjDLAXutUuBnp4WkVECKbWbCMk/BVJHDMeebi7szHd29vparh66BDQVFHD6xJwWEqKVnqEoPqm46N6Yw31H/zBT6f/9r/9s+nHP/p4uru/U2GhbBimq8BgDDwprSmw2+llIgD9ed4Yk4S/6EFYbEXFIvOSfu3B5sDYeacUrLq/vzttrS5Nz7/9dvqP/+E/TX/7N383ffH5V/Ug9oj7+qsnrdeSV0bvzZ1EDRsX0/sfvJl+8MM7097eRfr1N6F9s/2L6fAVBbCIg9DB8B1P+Bz+kGmRFEUgv+hOXhhqecoLvM/DRjzhRcdpcrgmp8r2TcVEiWSnykfgUtqvszm5nsv2lc0wcPTjhy4NT63iUW5EDVFU14v6miBbifS/cJxBGedD2ecs/osube5sPxZKy0GxG3bnEcHr+tg0QJUKMwAGf7o/c5TAVr4q5zVGsvIsoXHCtvPkmZECD+IaMif1dDfKeEJ3PaOUiKChvqfFSwtVeQ1QRmNKhpRNmBgvY5cOfWlWC4MwxfQND4lpPGPnsDfXu7FCR9cxMm2xna13w3lxK++gq36h9xEDULoM5bY5f6qr4SEERtJ/8Sd/FGV5v2+z/fgnP4pSCbNEGKPNYDnhaTVdv9mHAbVTG4xIb0QRte/o+DC/aXseHFtSmPzmNndDW5/PYcS2NtM/1s8OHbwa6x5q2Aj/2yj5029f9IWab558UwNVAxs46DDTQ/Ty4P5u8E/3Yv06dLkJ3kLGERXNS18N1m3vUATG8nr6t4kQ3lmPHb7/VXfviXEPrURT81ZUUvm0SLNiyusoDfuAwo0xp0GhinSVlLq9LecBZi9S58nzjFPyAQH6QWdkfutU1QVG7hvwVU8BLeqc4RWn/PUrKwvcFxnzTPQgDYPQt7sUgJbyXgK5ineoYkeA3Uv1Y1AmSC1H0bd6P/2zAACeQBN03ldI4cPtjATCfb+xA722qR7UksX1hO+8lpDbXtYGNUyFeR6VqkCOJowGCEUp2rCyN7XClLR94BB9fiOr3nxjo/gIjSkE4hpI68BQoFlZNV7wGDX4DpUHaV3x5/G3k78ETx6kU7dBLC9s8GgPHt7rwpPt3d1+uN4H4R8+OAgOm5NtgHhvzGSAfHS/4VwSXObRcPAvhd6pfm01vAhdNvXXQ+vd7Y2uZ7dDiu5F8YgSwlkEUcFKOfyw6Ofbb56mjtENmN89115fyxSpGDuxY4qvd6BVFznceF01ffWtN/3G+cG9tem9DzZSjjEYm/3/+/D/XVXs/0fa/x9iQG3l5KubIiDTk1WqwfrKJ2V56yEX5zxnHUqY79Ec3fp7WzTwpSHtQC2ULCDnKbPZw9ZBUu7AaV0xpDMksB0iYvwka7IoR47lb8gO1ere4qHi8ubeKBCe79/df5zfCPF4RRPjhcJCDZE7AXwQJVlLwasUtLhhNYQB9k2eCd13EgYLE41sUy6fb7EfF4WbUxuRigZJRtJH3vGR8iALYSGNEUveyLa/vL6FMPo6yoOdqtsWXk59FgGAg2AYxjObA7ezyMG9g+lPf/GzbqL47PnL9pf1Y/eSR7dBOfjrQ2IO+PquFNocr69TmBZq1yD57IqCHohu2aWpu9dRHivb7t7dbf28sC2WD6Lgd/Nr3OE8/fZ+eD1w50U/6t/xLaMFXRiT7jQKRhTPyPzOhnaHUMtrUbq1jqzfeoGgxib0D7z4lPDN5o0rjUDgbcwDk9Xnu1vgg901APjGGIZ22sH6z90N9G+UVmHUFxyv3nqJ5F1WbEtK/2Z7Oy0fysphNQrMOfL6z/2eLxIZRSuyZsan3jX0pJDuoRn6yVgW1hGNgiPcHrLf/nX4Ie/bI7AG9PwPxGwIAqhGgDPrw2GUCzf/44nEUSg3FJmxaMtqhHojaXlvf++xOVVh4Eb6qzJRLt2q/VT4OgC2KFcadxrvNi8ZvUod+ptCU9u8UlAIEdjjw6MqSxW79RDbkSAESX9eMDCCbVS+ShtEhUl+eVgDQRWw1M8z8VbdiL9Wboqijo0RWDiLV8AW3iOcnou155ay2l/6+OS4xKeAqWB6+vI4SrASQ2DaTcThQwBDyS0dBd+Amb6tEXXhvdRPHaVdFEiU4TtWPv73/Nnz6dnT552zFwWYJdjf34/ney8h8tMuJzTSv59+Pe8dZKr0WjI8rwHJtXrHleRbX54SLaxMIe90cP/BdLC3mbpO4mm3EyFtB9/NKVTrCx/t+8f4iVA6zb4QEC+0iC4YKgJFmPsbfqB3+/n5FRWp0xgHPvdtuBizbu+TP/neZcX22uZfR7G7JDlKUUVYKMOQz99OswKSU//QhATTkZZJqg4ljXzjepzmv1zMfWnn+ONZpT646O7UEEQGhrIOfHhreceAcu5S3J7kJ/lBmI0LR9q6ctQo5d4Clablvb2dx0aEVWqkGeJCOBl98WE7Ye3rCHiCyOm09/UZo0wLpCDZvmqU4+JC+J2wMp7R4BHFVKn6i1hPXYzKTXltBr55REJVSxViUGwhd8P7KB+MywiKnTzCV/A1pG/sBLAvU4zVahHQCLVK3n/Ph/3gtjb98JP3po8++nD64Q8+qQL95osn9cS8PhyFwRg4FM6CEHVO3YIIPmBrpwU5DJLm9L3seDTGyDvdR4sFHt9+8yyG5Gx6+uxFjNzh9E+ffVVDpa99//5BPXy7KmHSecJzfe/OPrQrcDPdj/Excp+eSdvM489LDeGnSxRSTndejzlrb5tdRoZENraNzq0aNjQ00Ad3tOLZRSDegQfLBwkpewdKUw/6G12XHy53cn35JgoeeP/u7N1eUmoeG60YqSpC2lsiNpWa+Yn6hi71sPmdlXY4lpi4HO4QaWn8hm7Jt8jaPDJ1oJMCBg66jioo4VBAegA+NJSXQb3r6Z71Kg/mwWp4uydbx2Fy0iKpg759B/O7tLyzS7EjdBEKyIwYfxS0ZN3GAt7KGstKR6HuoZVwJjo93S4QP0j/kmAZHW8oHmH1qZtBgwUibVyveuplg3rsNAhB9EN4M4tENEZ/VLkue6zVQ5gRUaCIfqRrq9Ws5tpNv5ZyepfYFx5+/OOPExI/iOe9M+3uJ1S+XWp9X37xzfTqpe2YhjfrtFikFzF9xkY4311jwIZHcKvni8Wf8em2QqEXppjC0h7eniLxht88jVJH0a0Tv00Yz+KLDiglQ2Yt+sP7e90iygCf8QJ+gQdeSVRgjEHy/0bcNxzuvffR9NGHj5L3ajpMpCB0DtIxEjaRZLWHsUEDi21itAvDWoF5zt1nb7Z2IjwBbOCwr+mmLXjVzzwxyIHJgAah3PeFj6Xp38TAvbOheBr7V1EYRhwdO/aDWG/ToLU0QuEo9tvrscajf5Ro3P6thJZvfwvbAOsYkKMbHAka062Rhj6Qn2E8dIXizLpgi6PzyWLOiaFIjXBNPvrAwNSh9qk0ng9ln7GOYm/v7zzWF/OKpvtGum1LuxOF3qbUETBzwPqnWxH4oFLhaZgMWKy7aZy9/e0OaKnQyJ6BHN7sO/otTtp4eFq2yhCsNZTvCGUzW3l2WY9H4foKZQQw1eXJsI790qN/VS4vYliOapR9eH4LX7ai5B9+9F4/0m41Gu+f0tPL9It/9cvP2g6eHOG00QsPULMnGi9mBxaj6cLxKnLaSfgZnQ7YJTe8hPOiirnrIGTXFtcdmc650Byz5PNdcGvQeX/0soiG8RjjDIM83W449/DFTfW/jhXdO7DC7O703nsPpvv39odBCcmOTi4mn08yfiCEBks3yFSMcfOuKosxvgyfjBX84o9/Nr33/sOUtZfa2IS/MwlpI2OtHfBGW16ewXvXFfsv8J+IhbdVasdvpVyn7T5FxEG9VZTQiMy97cfmlmORvWkG10igNwfsdpEoaO7btsoLI2BSYtne9q0XwLyR1xB9YVysb+iRssY+6pk9Tzk8EfG14pQtTnPKrX5t0xrTsc+VON/yyShuji0jqbl3nBC7/dsgepa+Vnc84RUigATi5s2demzvH/OidjDhieyBpuJR5/dqDhauCKD3lftCSa4pFI93Gq9Zgc+1etuwRAi1tvklbPPI4aDNm4bIiChisLrno48eTV7tRJj//J9/nb51Iooo2q9/9Zso91HrY503k9fUmbB1tqC+0sigUE7dEgpN+Kv8ISzaMHSe1/oHR+XAgAeF7PLP4EYoOg6xwAW8F6+Oc3g3+6JKBJeAaETAJxi008WoMJVxCQ/XttrXfv78uPR7/4MH08NHj6ad3a3gEf7ksFMLTx9703IMk1dG0dlrmejn+o9+8YfT3b3d6b6XZ+K9N6zICs4W4liYZN4fTwgSfppVeJdD8Sp22l8FDTmHnOfk91IMWaIbESTZIA/zfDND2SimaSHT+S+Pxvnb9B3cvogUGO50wDJdXrxUB/7w4HPZvgyV++qa+93D25tCjUG+OCtOo/tLFwaP8ahGOPeHVg2IUeyNx5Ta1JL43aIQgycrhCqFj6LUFGI7ymQBnQEIm/+Zz94yapuSRosJIphDECOklwkx40lnAra6BRUGAkPodyNovKtGyNp3qOMVz89HWUo9vxdOgSj6LPCIwNg0zEzD2sDcu0yH86OP3+++UsqenBxV8NXsxRTLTREIOuoco/nf1QUmWPrxfuf3likr42FuudNugcEbC8EpxhjE4rHpdITESrL82v+s01XNf5M+9lnboXK0KIX638DHqbx+g0nv+/ywz/bsJjKykGZ7a3z1k4EzOOi1T3V0gCe4eEZY0DiI1gP4xrhvs/H4+s+eb25uTY8ePZg++OD91t29zROl+EompX6dfrgxk3/7jiv2X8dYibBujE8Q7AWdRxpnFGcsEw1XUsaWXCVKzpERPfCX9Crh3izLzhenTYwC2ndVIV4uGNsxpPCn101+b2N4F8uRk5cBHveTAlPkRX5FlqMijkDkMboGynjfwa+k7nrsdSFCblhXrcBmcr9H0a9eTy+DhCUk9+P1N1Kxaa+TINXwMPV7GULjDLrcv3+3FVGE6wiGT73wut+lkXdOEN1Nn4+lQnD9EgptlxRfVDTNQPF5IeFqhTT1LZpc7zlvOQysPBTQ6qtPf/DRtLmzN33+2RfT38djv3j2fHoTQ/PFk6ftR5YEtcixeDUWwpzBDAQzPaSNwu5hMEKPwEefsfJsuXPiwmrEhhNmYQJvPhudi4ubGL3NTgnKd3E+NnicW4EaBquGsI0yoqAjEU8MHNy6fj2G0m4ylNdAmo8FerkEvhYI7aY/vbe3NT18eH969tLLLyNaOjw671Y8Xie19fPFmS2gz1ufNeGWAM8h48Hdu9P7H36QMP9gevLNN4OeaT9D+K5vtPA36apopzaRQ/wOeb5LzpNvVi5ezbRfpTX/1Vsnj2u8peAGacvHBZzmXfyPj+pjmsduP2Q1Zj5w1EtW3kYFqWsjBnbI8zg8K+Dk86UbHt/zptye5dad4hw4i6prTJa3drcfrzX2hzDBNmcXL6OCNPCi0ztR5FRk3voy9y9hpkAgaRgPptK+U5xnBog64hvFNjj1XQrCraenrUu/uCPfgVNkQ3jfVhJesrD9tFAMBUK8tXIpi3DgnEbI9a85QCGycka+9w7uBqfV6f/z//7/JXx9mfwrIVBC1uDWFywSEiMoK8xzgVcv2TrS9vxRKHXx3F7BNM+vH3u7ZImpaSJvtIFh2my9i1J4cGMQDe0DyYfpDWJRILBfHR5WuFSDgRphMLzTeMmPnuhdNHIYGNuI8Wg/Psr91dffTv/4z1/l91k8t/B7vCxiw4qL05OWf5GuhtdZCYf7f/ynf9xdTE1J2lTi4uxsevXiRafnLAjqdF94iM4jcrqdPv/N5+1OmetnJP5NlPtdVuy/TpfDjAnal+6lMSJL+JB/EU6GciwRNe5ByQZPOlKeC9fVkz4L7yIz9ESSD9zeDx2ryDknZ53J6LOhY3LrS48tiDnG4VzBh8xQ4pQ1wHsVQ5y/2SjBEQiwpM4Ctc4xJgaH5b27e/3aJuBSLUUQPQ+TL3LLtW95xX9O5wkpjd0adQ5o9Vb5dndsVj9NW+lHUm6N4qntGMI7gg38TAwNo4zCXiGs8JGSNMwObVgnxNiOFZsVuI1cMALBEUkeDDAwhhmmkSjgT3/yg2lzezch+Nn093/3D8Vla8vg0nh/VsOtbqMQRrcPEt5SyK4lRpS5zhwWZ/hVh8UyXQab+uFymsjCSydG12HmTazuF5Zfi2zMgVNoL4I0bA8s74TrukhzuzRLu8GocOQ++lrdJiLAZF2g0xtrxi1LtYrtcnrx8mj6/Ktn0/MosoFNihuX0HfhvbQ/BteWpg8+TLckXSebUZgdWA9dHYTt2yffTl9+8VWjAWE5flL633z+RQcwDR7qAv2fjk7e6VCcx65S5bpymF8yJOIs4XOHwtAF8itkdo1v+NSoKrl4yeZ2c8EnGeTzN6I714sxoNRJX8rZetkhs54J+8f+Z3fGW1+BId8wFJGL4HB1eb7oRg4vLclfZ5SjBiD//CfKpIjatby/v/eYomFet8mF/hjaGwinQC3E4mCh2ogApIydGoqlGCYkRdMn0xhIWG3V1U65BonQ2yNsO43Y2dyohzPA0LAlsNFYSG7jANNBlAgRrEJj0YTq8KQ48DRyrX/NmyG30JV39Doj3F88fdZvcWHW/t5e77F6cLO5hDqsATe95OUMEQZDNDxqQv+40tWVENp3HaMwpUNwYHh41TFqHSVPu8dMwTAMwtoxgDYW7zA2BEBIpQ0tF1jagZaEYVhzuQaN0YIwra2O3VXOEtL/qz/9g5CZwbCd8BAOUYrXUK2s03e3xsB0YzIUpm+hvf/+vRo3MwLeCUer/YTdewf3pu30uXn+Z98+6+aHJyfH028++7xG0bfNDJai9f/56PSdVuy/9d2uRB412vnrFGToU4kPQZIlvBhhOMWWD/0r7zn3EhDCKeMg7LNOSOMeAz2ezSPrCvmzCUfcb5XWffnphWdkeyj5QqEDotNsZP/ceEzkZYBvnkYWwXHGtwVkKI6jPfHY+48pKcZ3lJdAJBtl0ZeE6DBSaQSFD1JDuQcCRr4hRZgppFFhUy5PE+bpJ28HaaOsvhDpTau9eHVrqj/6+L3p4w/Tk4/CnHuJI3BuEx6/ijGwIQNhVqdRY0Q22g0ugqgbfpTEemfXiG9w624UuDuUnh1PZ0evuuh/admOoWPOW+POQywvNiCsfiZCs9xdLZf6alyipB04ilFhGBo+sbR5dic0ir6PV0+RJngyWrHRpRWD8zqKzqJafQZ/e3PfvrnqKjZhfC17DEdJGvzhgK4G3PCHTPC4GOxDh5bHGjd49N570wfv3U8+Fn/08UQuujBnUUYLYoTn83qC7f2D6ZNPPpxuYsi21g0sXsfgXkxrFFz713y04Ho6efmiL5OcHh21D89ok4VXpwZPl6d/ffwuK/Y0/RXjioehFzrrXpEFo935aRrhdm+HLhzLwuvGKZkt+M7j4s93ij3rAoONF2SawyIXhZ3/+jJIrgd0PEd7H/2LDAe3PnJ//CTbmAs3JjLqcXP8NpIIrup0j3yR7Q4qg59/ywf37j6GuNHokXFovFOZeUiCPUKQ4VWaK5cEUh6WzWCCe/pjvAgrw5vbmfTevf2O3L4XgbTA4l76v+Z17arivePXz19Nmym3EuE8jffkAe25NkbBhR+5kXrH5Pzo+2q0RTCWZRq1F0LiG/hbCX0ZocsYCcyMjlU4MUXf3/5Tb4wd8LLB8zr3LdQwUKR5WloCUrhcmIMkDF0hlryrOUcF7aXg9uZeSQH95CV96/xSNHOi9nwDTFm7fXqp/+T8YjHWDa+xxVRZEoCjXgKYFNif/uin06NHj6aH93e7uMRhAM1eb48ehrZ3d9P2GIsIjm+ad5OElO+6+9B0a8OKufShY1xFFZTZCyHn5zFsyUeZj148m069hJ3kHfGx2eGQhzsxivD41+mzv7OKHW55CYSMtjFpd9+iivJUtnKL0nFOSI92orl52XDHeOT8Hl/IQR1FGOanSpWTeaaCvM2Krw5//rXw4od8m1bUXZthV0ZzSOaudd+kOXyfnQAZ6SajC3DwVJV6YLv84NH9xwaQxugvoMMjAg75IlyEtEHlPMSwPY56yxwDsEqDbK43ViNAUZYP078zx33v7l4Haa4SNvLmv/xnW+N+3Z1W9uRv2fTjU8dtfhkTMGeCeVdZvQ2PQjR7mEHAm2W8qRF0Lyzo1z56cDD6oPE+KR6BDm4hBPj6K4xJup5NmGJAibcXBYwFJmlX8pb4+bFkVCiGRg3dYgiToYzBAqDQgnILu98Enxqd9Ot3ttdrCF4cHU6nCcW9Hmp7pWGwpip1u0JBhDHEMNGKtjNgf/Dzn0w//MGDGLDV4YF39zqyaqUaQd3f2x+GM9HQk29edCNFRohxpaRmGA7jjU/iycEzY9C5/vCCofTW3uX5yWQHTU1m3IobuqT88tpmjeG/Tpj+Lofi/yF8oaySvc94yvEiTPgXepIrckyZRUIiQcniK3SmDxWJ0IWil+FJ5HNWRkeVytRTYI5ErvO//yTClfOuGkzyddhGCuQzxxA6OmixkeXMQ3kLI/dq/Bd5h74VTHk0LoZ+Lj98+OBxVxy9RVBBei/fAOSYE8Q9QwTeZij7nekwfTPP1mIcViPUy1EwofXzeKdvn76Yvvrm2fT1l0+mz7/6plNOhyenXYxhIIygdbQ9BLxFkFQwEwzyMw7qJbQMEA/YlWZVdF7ZirAx5+7zvF4K4SGvrxFpjPRqhVFgo+LgDuUdCtp+e/JQN80VxRgAs25cujAIuGC8BTz2FrfBPs8PJy/N5HH7cUJ4Xo+SWzHG2FyYsjD+AEbaeB2GqacDHkmETEILlrjGMkKVcCGh/2W9y7fPjvrmmGk4NNA1EcYxdF9//Xz64qsnDbXhd3I23kjrRwXz12+jHR7HM9tP3WeIxrzpZYzF82++LPzBy0FjNL24somGgcXr6c/fZcVOe/56Z2wGUhmqoorYLBgZXRqvx/KeVgTahVa+i3Qt6xkjh5jFo+Nfu6eUmJyQoUVCZzLU0enK8XBWv5Ojv9Ge1Gdp8cKRpJ45n18eWjSlHhVVLyuvgZDzjgGFX8UHLu7lrzqT8n1tk8dyQxhdgVdJCghpMbUxPaAtSAkMKowQRH5CNtZdX0+rubcfeGsQyPHVyclkQ8Pj05OEoOMjc6aMrO6ydtq3vq4Te0fVJrOG9TIRQgoyN/j7EQKB6ydGW7mN6GJpg4+3ovQVYxIWZXgj2wcNQrc0Yl1f5CzwUpxXxCzGwOgvQ7EXxbGI4yc/+UEsdaxm2u9jfYxQlTIeHSn0wYE0ks8jO9jgs4a7UEsIHMat3Ek0kPYgFq9/EaUKmGmDcLknUlowRercedrBsEhXS2+mF98eTk+fHcZQrE4H+z7Ura98Ob25tvvlGDH98qtvpyffPitdQKoQpJHWeuOdQTU8tjmjl1UOX7xI/+1yujx5Nd1c2NjBKkN9S4M+MXLBIF371LnVPvufp8y77LH1sfGWMltHj07kvbSx2CpHu0WcRUhPJxhV9EBvfx3o7RiI8HwYwlC5tJ71xg0Kx5nQF6m88IDMOiLjPLHupGP23qJUePVZ8OSxmz+pEhI5kX9O1YHmD67A+01S//LO7u5j/QIFCRoQEHFqOmScj9CgCp5fygBQl0PmF0K8PiEyFbSdPG9yXBOmKBVLaE04JTYv7UN/ptDgQTEqjIuDoFOEetVgwxsNZFNl/oOPAQ+42ulUgv3F5Xj7qUs6A6P94Xi89YSSbXTy2fXz+uayI+Gs8lUssgFCzMIoA1U//9lPpx//9AfTe4/ud7GHabCXL17lWXAJwUw7dfcNlqG0YmiCd/Ax53wZwjMI6Nn5/Fv7rVlFN2hVa59DO7wEA0qKN6Ft6whhjBHw2vvpR99EATG001w57xZKMSOWp1rvrtyz568SGUWxA0d7rAqsV0q7fNSACDIsuhsyEZ6L09MOlFHi9e2daTP01G05ObuZTuP5rW3mVf5XodibcSTm8eMA0JXhJCdoQant4967BC38sdW08HaWQXQYidPQPWOsxx15nOIppZI4G9ez/jg4lkURmYds5z7e3gSeQxI9jm2XrA+XJeUWMCgx2ZoBuQfv5lG2dUaO1tY3Hs/K1YZBJBkIhYpngISnn7LJs3keeaRBCO8pO9c/NgB2qSxidJqIUdCHGUq6MCxN7QKkfGHngYUdkCeQ+j0dqKJVSTBr3jyn1LVwue9tL+gYK/AqJoHXxzR/qL8zE/cs/XkhOvjaenFF8QIzTdCX+vnPfjI9eu9+R+1FK14mOTw8qSe+TLRhRZ2wGs6DSHc6H8+6w7cKmbq6fj73KNRl8KDUc8gOT1Ssl86FN6e2Ymg6AFn63On+bep5+N69aeP9T6c36eaIYIxf2FrpeQxNwC/Wv4e2OXy4/6RbRA3mwsuOpiV16mG44Hdy4SWX133OUy1FeXFet/H47HXC/cMaMxFHF+8EZ12aPz96t/vYfxHHQgG73zyvl/Y2Ksw5GjHwQ4kjK+GN9QlDocLb5DOnjLcMYtkf3tdTSmQoN5WnVOScfLnvHp6qUB6GYSjfyDv3lekXXLxn0V13RGKtv2CayGqTe35SPxy6fVmejdCcrgw9zo+R0BEW8Ir1yhE0D4dADKRMgRAkQCrcSb12cjumEIz4Hp4lBM5zgqS8sqNRGgj++NUg9XRqLYdBCveMEno5Y6xhH3W473DDVA9hHtNRUeRYVy9anJ3y0sNylebzCFkShlwndPXMApHjeL4qnLAoOKr/hz/+dPrAFFxgm04Qwvuo/PvvPWhfaHfbzivL0+bm8PjaQaEp6qA5bKfp/HL0n+Fbw5E6ug0UuOibcyPoQ4DGW2RoZXDnYG/nbSTy+nZruvryy/IDb8BkbNHyfmcb7vZVP0r95ZdPgttoL8+MR+imwT66UGXNs5CuA4XPjk+nF0dn0+HJWaIrfcflsUNLBG93b2/a399rWxnICum7nEILNKc4ZjjqONKujm+gRwwwHoRhlQXP5jRklwwPr2raKv/JGhkZhnhWOHwqwfPM4NwoV0EsBRtxJk/YITepKZ+aFMsz/f+hW7RyVmY5/fT/poL4Xpr1tkYlaCyN/nUKpNBQWo0ZYSOAs4LPxFCp6ypkhL3ZQEpB7zCbWumoa6y9NqkQAcdUwhhwUxb81pFyrKJRbnPL9h1jiXgwDX2TMhICNMSIZOprLosAUruQiaCmFZNteu8f7E93E3LZf3xM2cA3Xj2WcCA7iOmPN+pcctq0F2GmWGMr340yEKG0UchGga/TvvV40/t7W9PB7sZiBH146bYlaR4MM6c5Gz/1Nlx/nZA38DeSx8hq582Di00iKLYFMabfnr04bqGTV0+nk+OjwB58SNbyCl27FVOurSF49uxVDYTBHm/jUUTomGcnHiIsPLvlllNWXXhJoF9Fub948ixh/MvOb/syS/uZETBGZBiURTve1ZS2W3lHSd56tRDIykcylQcxxhYmMbAWPi2cWZpdmueYnRvj0K2Kc9iKiDz3/W0ErxyEzqVXbuRfZS08JeNhRY78Atgkg/t9MG4lgYH+3uwaC1foiwq+n+b8Qy9ExKJl9VhAtaRiTK5ndaRS5xabsGLAEe4qeAgiP2H2gKIWpVyr2GDY/s7OdLBjHzPWkAUbjc1/b2F3Ij/C1foCzz0Da0bKv3l+WEXq9FvyEFHtpoTqtdFi1Bu44VmDAyNg/23Et7bZSy28uNHxo8NX7UvGz1WoK9xJ2lImpAzv6QMCL9JPNfc9mDdwZJUP7u4XrhFu0YWvQwzCJ9IwXZXfzl+nuUI6x+BX6so/dTF6aNGuQVqAFh77D97waJ879RpfsKWzDwGISJ4nPEYTfKD8pg+tC1gxbRNoBidnwyvxCBd4mnsMKvowQmjVkXxo5ZCf0jMyNphwT9Q089no/P8qFDvJmgWyzKCTKW3sewy5if42pnx1aCPN7+Reu/uHFpFRaVZwkITAPHkku/AkMvW2npyT0e/TrzCTgfyiNXmQu4d8ni/yK8+4ju+DmUIbEa00suY/dSxkeUQlFlktFJsA+O1uIrHiFG626vNqtBYMgBEW59Cc3IfQGI1LhYvKZnhD2CxY4fF4p6HI4DcVmQHXLwXriq94bn1hn/AhWMoDL+i9MEqd8uioIcJy/aJ61HjAr75+Pn3zzfMaBtGCQbSXx8eBNb7uURr6CR6V8AUepjzsS2aDCIprNsAOKLYlsk83jNkEi1kMLPGMtymzat319s60lvDZCKqBuRHW5V/qczgXhu9Qel40Rs9ne3a27fe28PDpHphThheP+f77P+uU1P2H96LkBgBFK96gO5gePrjbAS0LGF69fNWPHUqp5u2BB3i2FYW2aIVii0gYSLTOvxrY4rdIzLR24xueojtvUbq902nI4na6UgakZiL5wTP0SIaOaxylazJmV0YiJiONkLtyM6w2sKVT5T8gKNS8FqFVoHN+Xc9gVFUFRN85tPfUg+YaB5gcjAQOR6LbRdHBe3ufNx8X1Rs45ML2w7uPIVsE8l8b8r3fFo5QQmS2WuPe6J/IN7yPAh4u7kULhlKPOdnR2CFQDakDkwAnY/MbsS4c6ptro8OtLfXaOsgTf0Jx/e/hwVlS4ecgtDqF5XCw+6a6eEIGYQxuDRyLizzBwTQQZcRUb5V9/PEH023wfvb0WZ6vTL/+9WfTk2+eTjdpA8VG060YklN1Jw7oxnTLoV+uKW+NY8rDrSn1YMNmlJLh+OjDB4MxeW56DeqMUL1pLgxqbWyuT48e7nROmpW2CeJOIqFu85zI5OjoOMp80hD8n//ps+nZ8xetSo34YCwEPAtmavBuvGY7wrm+fJP655duDNjZ186qtRFR4dcIwQ0aEXzC8k4PnoUJf2l+OsbUFNdI6GJnG9+NG4ballB1MKFNc5CdHAtONqFhbr1N5X/uiex6O//hwazMjLhrtiAiDUDz518z9ycP+smfXNRp5uEowzjn3si1KOO3N6sD43zIk1mYPgjc8H/khkRHpnOMxsBwkc3DpvHc0T6k5ynfEd0cCMIaeWDvMmu+fULHh/jG2zIJP6IUoeW0s2H734R9ws9A5k3AVOOYllma9rundgQuOdgR1LG5/zx6rJ6wogNDlktilB1ZvCe9G2+3u7U97UYhuq/Xghj6V7wXYmm73Uo6cBckfJro7//2H6Z//ufPp88//2r64vMvp+OE8r6ZzQAt3VxNa+nvXgUPmKJT1TZwLGbZXo+i0n71LOpzGIml+JSpbc49g1N7u7vpvqQ9aav2b7VtlnledlGPUW01tA8VAri28MWcs5c0Xrx4lfDxaDAYUCkC1Om44HZqVVkEefD0ezgt2q570c5UnhM83kZoKb+w324rxksWhd7pNHilX80hVJRKj9I4vyXfgjZ5WhrkXw9lh3ItwuscfsfBIY5zy6TNpPCuZhuGAQ/8EJ83ZShHGrgwoKml1yMqopzXvSeS4zzBL1PdXbSBIs91wldX2NqOkeQJjrxqC6QFVej81u2vWTSvsBFZgjL6u3X9o7Z6ZH1eYZ/+b9crpwICYlTQNWWVjy6u+LrEGm8dJY5CrEWbVm1+r/EItLBADjtv6hd1JD6NRmCGRziKzNA/u7QZgdFto/ppfPL94R/9pKuz5vlmOHtLzGDeGLSLQMcLeSWSN/O9r+Pzy/SVvfSyMv3q159Pf/lX/2n658++mP7u7385feG95+R7nXw8rpV1jS60CRmW9MNzkn9e21yP4PCUCJ/W9LgTugq59KnSyNJ0a3MzfWlrknMvea0S66YGqcMA4pLvWQcefsAZPPwZb1slatkcSyRRYm9nY9qL19X/75ZGuUuR0bQwoJdDO0zBqcOvN9n8NiKKwSJc9eKBwQAqMwTvHU/aETpqvwhNNOKe/u/cNeEsrB2YFdq4w2wMhkwOD4nnjGjPI8d1ZvlFJwbaW1wiPfyuziTfDKNKB37+xqKpWeb7JPXLlxP6k/JwnBNYLZnydGw8jFyouzgPXAsg/wp1jFrzYq23isSzyoPZ8yFD+8m1dgMOlMy7+eSPtdr2+vbFC4tVBkFG2B4SBu7oT24nAj/Y225oy9pYptnFKwk1LWShdJT1PBZu1L3UDRVFA/rh4Ol/nJ55sWLkEWry1Mr/6EcfTQ8f3WPYalggazOJ7fWNfmPrw48+SB/2YY0Gwb7IcRpht3IOgYRrohCGQVei89ExMpjdDQ1zbYcYWwXf4erThi1tDE32t9emR/tb00GUzTvSm2nXGual3T/+wfvT0enYveQ0dGKJsQvTmiHn3Wstddox5eI8fecYSLxZsA1ri5N22yJJ9CHqMHhoPtwCoK30+00Z4qvdVfZ2YkTetoPhjWdIO7vmOUn3wVp798xdM4YVhKQxoDr6eu96ur68SRTjrT4iETnKUYVzJLW7EibWMGJr7jk8nRWwKbTpX62nZ2YndA8j33kGJpmcswvHawRkHHcqZ0M/OBuwc864OHINB8BnhfU7BsbCiyKV56kDbyo/309wcpPFolzUjnCyPLU+QYQ3lqy84fF4GIrHi/PMN7cRFopNQRaLH5QzGrsZYdN/sy1PisYqRpiC8EVwe/nqVfqKJ/WY0fqGSIRT+O31TvO5RtnnUVpk6scAgosGljHuF3cRBsv1ZvqL//lvpr/4D383vQj8i+uL1CcUHW1gJZfurCTk9irn8GyIMBuAkxiKEjBcpTidCkue7SjOZroOlp3CY2Z6kZEjed18dXIxnVykvjwQmhvl9r0wA1gU7DqhvBVOQjLvPZvea5cmUITgFEvd5tgbCSUaOT4+Cs2H51af+nkJ/amXh14suUi3Z0yXwWsIy6DV1vpWhI8w8cRjlFxdC7Es3cc4RerNLzp7ScTvECiR0NV0YWnju5w0JTSxkGleRipK9TJNH+c5Y6fNQ9aG7CdbD/QeoTGFW6QFfSgwupNF5dGeoScaHYfCsQiYaStTqRS8MrTgBRhz94ecKq4wyRuJQgvl56nb4ehEAvrlXciSPGD61+R07+5BIAhFciMMZrE24m28iXXeRRwVgYZ5ipuOgfhFvIUR6gqADDksZaQMw+NH2YSGtSo+YrcY1k9+jgIhDo9OazAePLjb0Wgf4mNF1enX4NJ1MhvY4sX2drZa3tH3aReNoYSw5NGNLjM0jFBjG3kT8spofzXzfYwSBiCo0XeRhnY09Grcmn+hR4kVm7ASxbL9E2NlP7OGy7lnfICnuw38zbTj8Pgs93I/YKpgEZBNxiE0E/7vH+x0f7dvn72alnON8S8PFyP2gYOr2G5+W9sP9rZ6breT9z/4IPTyTW8DbPZSO50Oo9jBsINsfpeXIzy19gUVGg/BNQ9u9dis3OgrNbzveTx1BW45/f6xMMW90/PTTrcRng9jhO8mf7OrbIAo3aQag8XNKk5+3/YJk747S8oF/EojnsTD+drzt79C4qEkftVVxUmiUIW5qL945Jm6JYpTWuT+VzlO0z1r12VJl2vxCm+KUNZ+KLGzAQOGOrQHYuCNLhx0Ei1FHjqGsahXPm7Dd9jgSHCGZx0DqGBV7XLeSKndUnJq+aj2R16SZ+ALd3ADo+H2QiaTBk/QfzwnmGDN9C+RnI7mT3f2D+7dtnJeLQ/ogqmf1Xgp94ZwpIFhvLXD52enCekuo5wjBJgJ7X8jqMJh4aE+i8YJ/Y7PLt72aVmfhqnJVw+S+uYvbgqvhZkIwpPzeMdn400sDfQusvK2w/VapqiCwjA6AVVYhAnc9jXza8TT97ig2a9g5OChKExxT5mzK9/rGl539C0HARkoOI/3vYehogB9hzu4diArZfolzsDxyiTDBqxvZqHdg+D8OnU1nM2Dew8Pphcnp2Wy54wZolM6bQTfUld176csGhwF7vvvvxch4jWM4F9M33zzdXkFJwolxPTZH8ZC/YTMJ3hxxnmnGFOg01kd/0h9OeBBsBybG1vdpdT2Tbr+pn2MA1itFmyxuTCMBM/yop++nijENsbo7JXT0/OzPIvw5bkXJ7xI07B1kdCXQmxtrU27d/dKx75ckwKMkLEOMyZ0/tAHHsNrWzX7yGFfp8x904VOatRSxiIfMufTSmC/OjmpIcYfsrIeuuEpL81pecnC4qygmF/dmihJ8nbVXu41lA6eumu6ZSJVNMT3ylrbQzGDTOo1aCtMRifdKP6BLIs4Z+WjiOg/pqS+S2jfHMk3ci7S4hpPGxHkXKSJsKY7RxdpyNvvpuXtncXXNlNKwb6+l1/INDzpXQ3V5/SChvD2tlv+GByz4EPF23ZICVE7jZIG8myUwhtO3uTaSN/PeT8HFOY3FCYcIczlrWkfAwYJ1GGZujUE7V7FC/LYpiJMc/HO5qbHgFoamDIBUuEtPik/eyqJ11QPI8Ri6x7w9l6bZK3n+uoR0l5Mv7u/jyupbyXefzC868nVEWHQpx1fTongBgbmUepa7IWnh1u7IznUa19vmL73/r12BUZ9gbU5ujUMDYHEZIZH+zvmEEE2HeZb27aa6kYNpyddScegMWI49+Y1zzIvdhipXi2XFZzQQETjGN2bIfSdjhwk6FZV9ng7ilIYjFMOXF9PYfAY44aXOecN8dlHIYwliNDgKdKYcRCtIS+DhR7uojfeue/a1J56KHORyD+GVL4qTVIHK3Nf9NAFN6HnCI+XOiYBnhmRjsGkbXiiNm1DIxFR5SkwKL62zO/3L6pMO3MeWvZerotfz0Pb/NbhAJB/xS3P25biMQxRX2zKc3oSigcKjztkr7Ajcx299uh76bcvc+VGYI8fdYwBssGzEZaDOdLA5XdTaDruQnAv3mwnRNoMdg4On3Invmyj+sZUBGQ/Vv3TDz+IgHthfXhCFlQf+/mr41rg8KYexOdgeXChdVdARSnUtZRzUcC3z4+nb795XsE+jFUuESPohJ0SSxplXhuqhKkDQG3oUCANNerdjRRzT7hKOeYvLzAIY6ulCMkirNcWg3xjmmCEPAjJKGj3qoZdv542XKu49YSYua2vfRJF9s6ztnqjjJJIqOmgpF2sElzR58FDO6BsdrOEWZmARRMKoTowfLb3YDeeswNvoyuzm3vjA4jXodW3CR2t6YbKqNOrrlXqAFF36RUa8zBw5iW8u91FLaEVGo1xieHRQbHbjd6Sr3wSHoN85r/xg2B19D5tGv35KDSYwZuAof1YAOR9gbGVFLiu12y4scaYDDpqs1T+hhfo3lDXzQVNJG2TX908cUPRXPOElFt5WefBru4aE1x5X6zomEVkZQ7Z5QPb1KhQupXlQRUXXz30L7+zTswJPRkObetWSuicPHBS3vhQwCNPfoNXfvXJ7WXWV0QpdJyJQeby6LfBLxIsi9A4Sz6ptGyZAM0txmEsXBk4/IugksjwAkgyhUlY0i9C5B60g1UZx8oZ7JFX2HGakFw4Z8RV/1My6rq/fzd9yfud/7ToAVIaNr1JCJKGdRgfcWp5xppwzO+GiGEYZYfL0ak+fATeVfDhabGIodGcKiJ+xJVSVoRvvz64/m/+8IcBNRRciM2I+CY04X8dD3QnYaJIQ7O9x41hQzwGLbzgzjAJQTejINuUYLE2vV7Smu+1tC/4O7w1RqgkytnBKM+CE8HHBrumrMSoHZ1HMYLXUBgQp2k3SnWwvd7fMa8dJU6pVwlpvfIp006U2zNKJfxEuw7OMWg5eAw8Kh5FRTfCUGUUv3QcLfT4Mh5QKEpxGCmGqYYguBMkykSpvcJJChlaQjQLdI1mFN2A4PgmmJdFQuc8s0sMHuGFr6KeX0Sok399PXzOMUJcYEd0QiF4WHin2BizCKWV6dhJbw4Ftw8ZRQKfcQSHl4YX/OeuHcHXjgq+sqHLGDQbeSl8Pak6Awuv5ugGvVou1+4xTq0HojlJlnZDGRh95Sp7FY1MD9lmBLuJQuTOLzmcPSzYaplxc/VfSuqWjJR3Ck33N3Wp+216e/7bkJY3t7cfoyhFWwmxgBqWNY2IJdLnEAqVGAEs9NHHNX9sdw6MZcUJHYW/e+9+FCnhVRjx5vq8mx14bsT58MT+yJQ5wpBGL6XBvhP2/kcfTtv7Dxqy14ukHtLp/WZE0f/yhUieST9r4DimaTADwSm0hFHP3i6xHAznrTER7pqPxhhsx1QK0VCdMuZZw6hYWSEvurSulNKz8StyQB/bH9nVVCI4hL+C70aey7OePDztg/SrCembGId5XTcJIWiij3qZ1MV4YeAZYxN42t6pL4qVP/jiixkI7aKUpqf27x7Ue9gdpmMEIU5fuaySaJMIIZgtDn1kiKILb+OrqhW4ZK7S5ppiag9ewc94hnfBS2//5SAPcAZb++CAJju+wBK5EK2BSQkdIgWH4qmt/8lnm6YanzzQziH0oxr5RBqqFYqjPxhkQ/tnhaHwaGVgkcLBhdLNykxWyIhZGqPTaFLnoCmBocys7OjXlB94DAUcOM03K7/Jpw5tK+aRG6nGNedjcEv3Lcof2KN8IXyX5pvfu+vM7VkPrRUnCzx+a1hkLc8WadBsHNLyxuZmP8pn2Qe/S5AJKt7fboQAgcIbsj4QHgoe5YxCGF18eXTW/qr+tcUZFm74UHsXkkQgTclgAg/DAyPGdhiOEMnePvHOwYNYQa9pRHi3doJEFD84LN0K1cagnOk4n+n1vvUIfZRvTBEhHHtUEVhEHJaYYFDsMZhEWMv+nNf6UwCKF7jKMBqeW2yynNDR5XUY30CdggfvLjxRY4Cjg2WIvMfwACV5iY60+oybUYrdhNWr6at7/PpN6JO8FYriMRRb/xwsb8ZhjNkGNCcfgDGulpsSQAsstJWAUyZ7iW/v7kyvXh52+pAg6e5EOiuowk51DfyG4ki9J5rJCfrwNAagOueao3mCv2foqR/plzFAL4pkEM9CG0oD7/GR/KFM86ARuqurng0Ouac6ylNFjwzxavOqrDEdFOYFVloQ2vLaioUucTBhm2aUdpXJwGzLArcRYMqrHxzKBFdGygDewGvUp9S8btw5HoPTFKUEVx1drIMI/pVQPS2NCz9tB9f4jraPwcnwamGY8UC0UNj5T9m39STB+7dSMnRaFl9CAe0YxmExAyXLjMf4+f2UfMubW0OxqYjP9yikQL/2EWu8Gu9LoIywerVS88e2Rhv1wlYtmQ66G+HSKGWFEDcR4gpGrLp73UAhMEv0MgfxQoCcrmzuVKAk9a91VdZNhPVlrbAwWhHlEcz71ISdoCgPPkGfWZNHJcacNAXTayySec8e0ylrdFsRAnL5FvfRdwLbMlVh80WUI//KFN2UJe1Iub39/e7RZirJs6BQZKztNgdfbxgB4O1uEv4zcGNwcghplTf1EBADiw1rQwcjzbOyEOjSK8JmcQyZ12dnlE4T1stjUO3Fi8PCIUw2UfQRwG4OkXtV1CBYHHM0Qsn9Ey+8BHj3Ik94b8CTEmg/wd7d3m504CWUeUSXourrU1T0FqXxpBReJKfcUKChrOVC6EWJQ90I6PBu8rgftlSecM7HEY1L+CIpL00GfPLp/CK/kTUhsPaminjrRC9DkFqnlgmpDcZTSIc6fE3UgJ52MDacqme3S+PjkXjessHFOX7gj3+iCcbWrwE7Sj4MytgbjTIznMaPNKDGJXQdG2+IUkR/o68Pw1HTfzmNVsBvoQttH3nmOL6TZ2ng/V9KMZjrG5uP0ZhX0aQupIKn/kwEwhtTPoxvVRaF9blWAy28xVilZMrDZ3iXp/3NhYWHSJi43PdJrTn2eZXVCNxmw6Gzs6vCwdSGvVFs5wQOEbzVZN3206djOWc9UBKPTQFnAqqMcCGsfbL1Pys4ZRLMcj/1YmjDQYqcxlJuClzkw8jwqnh0sCjXY+BlGJ0KS04wntf06SP0weC1tAsse5cP4dJ2Xsr0BOMwaENAvTH2OsLFUxFW3RIoDEUI3VPGGMXDB/eTf4S8rd8JVJMHugbrbEDBayvHsHqPemyA6IMM4xVNlDmNwhsk1FbKTWCEnOhj4ItgGosoPe4Mz+QdZRUy5vKjM0PYbXrSHsqN72jdhUzJA0VwtUsZW0J3S+W0rQagvBqRlV9GU10NlYOX0XbjMNptbt73xqwqPDsXoY3u34IIlS2UMRI/KwCPOI8vMPhmLFALPbSfzA25GQ5gz1tebGTaDy7lw2eyAddZyUWKjBzjB+ehqBQ+EV/ug0/h5rrKL/zMNVgkCL7DWIykvPP5+rs05xl8HtNaHFLoF8KDX5mV7/cLv00dW0i+hOIbjwso/T+rol4HwHWEfCmWiiK1D5GwiIIB7iUMgmTUVL+XRTOoRqAebI8pIC/8GwAyFFcLRwjTT+iyuyi6j7x537hNCeyVDV/bjEcPAQhLKDG9jhe0LW6VIvVSNJ5hDDxpwnfEksrUCDdPh5iVoWTY3tnqZvvm3/UfEYdFFQ5TNALqo/kUxrPZKIDHXnY6liYvUvtfOXhxysG7+qoE2CRHTtkxvC9tBB/KQTE8E5kcp/0MIwQ7zZL72l4jEAE0Mt5+buoZbVUl3HISgaQ09o3DcHTnQcyf+7oKnHlXc7/aBEdt7I4e2sSwhZ76woxZB6mST0gtBOz3yilyPLjIRH90c3urYyXyi3R82fPNm+tGUsUtxCb02rqdrlTbGXzdMxqvPo10bxCoxUoX7bZ/mM8zWSgCZ/eaMfWPvuzAGQ28qx4VjPEaMyBSd4fJswFvDF4pPgyTvv1QWMoJRprRhUJDKdVFdhjwKCLr5U7Ke16apTzjndPkRLNxn2x3z7nQvoY2vKXEuRGa7SUfGgcQNPOrpvGfVGC/lWog8Cd4w53hUY+kLgmOErjDBHyXGLeZ1surm2uPnfGUjJbQEvM0T5hxGaWVCP3dvZ2Efxe1kIjHAmuUddgnCQufn0Thzw2ixGJGkCwhvX19NS2HWIjp64VGY+sFg5SplWKR50bLby5PU+nVdHF6HIGww6gwn/W1AEM/dDBQewySaLR+Pij1sLmeCSFh9Ll16xFig30eDe+UxgeG8KzRxWwsyoCgk4wYhEgGv/rG1vjXIzaw9RBcK4r613pD6sAfg09jJBZsXkQSalt8whAONkXAYsiAH4Nv8BtTTz4iyvoKI8ECl/BhpkU26nvl3WERTvIYgzDISIgpRqd0Aky4r640o/TjpYt3ruGjHQwDQ+Hm6kZC+FN7p40xFX7IoBxBZ3xtk2ysRFeCp2X4lWfgStfyFq/DYTJWOg66F15wwivXTfllXEo33lFbCWiuRQHfT6ILkSM66z50tVzyUmz3EBA+pvLAA4syj/psp3yVZ2YPQsWUHZ508K7ykz9yWl7m6DWG5NJzg3W2x9LFIjtdN5GaR1v46SFb7plqvbYjbp6Bod3+Zrj+LSjQJN9swBp9UOrKDWjfpQFllCxuPRkH3qsf/5fXt9cfKzqs3egPszwNXUMk9zVeeGWTPaPSQhuvQ0LCYg99pL39venVodDPCw5WLN1MW+sjNBROgMcLL8XSN4SLUm+uJZxNyC/UOj48nm4vz6ed5eCRX/txpYIKN7zb3w0uQimNnQmIYBqEMEU+yQ+j0/Xj1Slz4mF+LtofWqQxJhCmBpK7GD2UGtFyjf7O83DAcR6yps562oAUQcxCKqRzOl6miCeNYGkrRlCw0xgXg2cUoQIc+IQdA9XLUvO6PHXnS1POiDEKrEfoWVshoD3RCNpplItZw4Pj09FfbIjI825E2SP8pgIJt7akFWX6UGZeLDQIPvjtDTR8FkAOIbYHd3iRc6voDHJ2/jRIM5JSPwBRpWIYh4FAC20zeDrkDj2Hd2tUk1RF68MhpCI6joJ3lkrOZB3KEOgp77oLUiqTqSs81yXQrobP8iQxomRjCPkwDu02BjefnCJPnpPdfg8u8AZdWsWCF84HPHIENiOyu71Wg8Ig4ud4kYZsMdboAOchn6IQUZIG1JDkbzZT4DeVPiNVoeFrzUhgicZmHCpznhFK91LOMzJTyJ43X2CkLqRd3r+7kz52mBbkMdoxGhNPI3zDjGTsp2oCiKU2h9uRzCgskDs729PObpQ+oZTw7PLSwFMATTfTrpF1hElojigawOr7HhUEMO8i56/S59xInntbY6HFYfpX6pgHkea+8yykmt1QLM8QtwemBj4Pp+kNuZOHgA+BSEic0L9THQFiuibFex+9wPWrvUPwhodhTOR332Puy1OCNpLrpYSxIyT2xwPDifKip2swCPlm8JGf9wbPPDTvx1OrT5sppD63ZZ1wH3QYS0gZjJfph6KJQUmzA7Y99ly5AC8O6mib86wK7Wgjv8PJczi5rzxad6AohreRRxTUXP9YbBG65B5vJfSswOYg1GYrBv3HeMGoI8Yj1bUvjYZ5ToGHYguxUz71CTvLs2QWOcIcli2zwEvEwKO3XbLm+VitFnrFQGsxnQLbOZ7rQlFkhg9OcKzhSUb1ryaMFkFKxmHW1jcWITe1GbSAI50gux0Ajj6UR6F9Z1LyrwqXX3SAL+M6ZHNhKELfnCaj/2Qd5aqQOTqo5y/no+4Fn8a/UWZx3fOegAg/QMe18xqz/C5v7+09BoSQYDytZ90orT4i/Fhmb1sdHp827DFyivk8fDcvTP/sH3/9Wed+Hz3YD4F8B8vOJxeFGyxbmQZTaEQxwLOxOuY/n71K6BfGPkwfPU6+Sv3NoTlvlneEoB21znnwHo1OQzAIsQio5C4CtHE59FlLaAxB4JwzCHCCw9xHq1HzVwEPyAWxRi0EbyhITnu+mUjAXtSDn/nLfWXAN4hIAIVtPJQBN7is8ZAB2HupW1hMWHykz0iwMFMdPs0r2iGgFFJe1zwjBTc9pk26Jp7xqEamLWChHGOkP4bxLAKa8rt5hmhD6Hra/7bCN7C0WVJ36ZiyBrJ4Plsyw48iUymj/ww72fBCDpgUx329Kn1yC3EKUV2hL1lRJ/qAPyKmIcT4h36zQLsPphzaj9ZDoIeCgYEfMZF9bqBPKfiBAXe0wWshN69H5jq3nbLwlODsJZ71jc2+Yw/G7t5ud6n9+qtvWme7WAE5okF8D802TKsaZLYYi77oNi3WAjAyeTIMOHm8rYwzMOiAvm/biczJoaEzHXqRm/XU8rjIrebpyZy+O3dfvaVL2z90Q+nl+/fvPR4WZvRvWA/WzYv3ZVzOeWuVeZmDko3FD+YG089KSC50ODw6Tng0BsA++PTj6d79/b5yaKDNrqI+RUOI0u7kN7c4ooTD04tpa2u9/cSHu/EKaeNXry6m89RTDx/tsRcYRtaqpwEUqlY3MOZEPssE57nQWIR33XfL82dgBoxa4eR3TgwRYgjOMAgY4SZP7drzMqW/vKb+pzBWBbmRw+uZEmUDh9FgWCi4hAHw6+grbFIME4Td5lg7pZMuTBkT4Axn61vkVb/RejxS99uoIxcMaedv89wMQpdX5v6ow9tu4/1y3h5EK83GyyZjhgEdkjX1DcGs4YvSK6c9+utbUWTTY50PTn5TbgxNt4hGt5R3aI/Q2NoG0ZVU+aqMDRoRckf5kGsyhh/wrVI5SRrt7qkHve+guFVsQp2y8Bj4j8Qgzv3swdcRmuvyaR/5xlczNjcpO4+EM6Anxydv60qm1j9kidGOQ0s7zo3Ux9CC6VtshdnoTbRFgQdv2/78zuNRBvLAcUhw7oDbAnFt17aRPC33x2WS81keJTorwc99CQ/BWN7c3uxndPWbVT5bWALhPi/sA/SDGUNheHCWRZh29/79KHQAha2Hp+ljJ+w5ONjvVzaNsD558rRh23pMeoWkoQxvPxpyfeuVyLVuObQTdy3PFy/Tj49HgQ/kvU1GIcBBBHQJam17hTuexSUB1TB5NB5z3FMn/BFUnY0W0i7PGa/mVuANAQ3hct4QmmKnvAt55x1O298MLH2s1pEyPBxjOAsz/Gxu0L5sTL/nBNhyUDgMIzfw9gZVjUSQCLikIZDFI9ciAF6HMKtbFp7PtUSwRp88tMj5dvrg6uh4RPIZ7Ooa6QgWD7K/vVWYBmm0u31flWl7/gcHbLRpFyaGuO8yh7fOjal0sE2JgKAwY7pteB9GjYOw9ZPpJiPZwJMl99XhRj1Z6iFTbXt/R5tLo2QUQUrK4DX4XfCR9oosHZ3uSg5OQHYyNLoToX3ahkcdeAsNhOPzVlnosRGvbcygNEze8fGJQUv1Q0ad5Ef0ZcMNNJFHV8yXS+XTdqz3NVM3dhLpMOa6FsowuDVIySR/y8BXY9u+8C4wm8at30v0pmMX6gqcEe5/T/Vzro7y/v6Dg8e1Arkw4q3QGATyy0vY3cSbK8KQhB0RThYojxYC59XD8/azeZP9g7t5vhZvfTydHB3111LIjx9sV3ivKOFywtTUZ/M/W/zwTavxnVsJj16dXU9Pj7ySOawjEosIEN5ocLsMuacxYBjYkeDvph/IUSjltd09/aGtXHsmC0YzHJikYK26kC/PF+LVOuSdy9Sa5nye5x79reRORkJHULu9DgORfB3IyXOCBod2K1KmMPsfmBhasBUgcBiSVpX82qBthFJL0ZxSj27DAlb+1z+Xt0tU88xgGg9kkIlBwUt0i3hM2zGaS8GJV/PWGZhgEd6Z7yD3N/e1G/3rCQJrjLegIaP1uhFVw2H4RlY0wYYNeHgW2bBEVrdNXxtV/VG84XFQGR38v2hN8B9nI6mXXAKsjXCp/uSPgakw52jkEZx17/CI0rvGA7ipy+o6ntd9POy0J5lKnfJ0PTbaFoeBxWinMxT8Pm5xiGibP/jx4ui4s2knmzEWkoo6ltI8uWaEMLLXaYS2FrcABRle/vzrz+KQvD02opvkjBGonvbJgl89l2KMHr73MIo9BPXk4jzKN6ZDhFiIRplVbMujYSmGeABsZRFFY5URUoi3s7s/+UIjAfr6y28nn80NHae9NPZSGL8QNPqUtkc5vIZpkC2RwMqd6UnC8MNcG0zCEPWFP4XPAs5hl8Z2UCuEiZmEUW/WMOW0glphzEV1L32kCJOQGTnaihQbAjvOawXyL1e9rAIFTqdu/C0o7Hmnk1pv7rdLkCO3ZoFQ/8iP6AO0frZBRefuSTZmcDW3FZgKYn4pK+Wc51gV0g2wFxz4ffEDjjmEhGl9y3ov2qDb8Bbm2uPBUqmFG2Y30GfJqrXAuE49BkkpDAM+oiQeSn0DS/xvPcrlmT497wInax04GkqrjPtGuX1p1Aq147OzoagFh47DmBrwcq8k6i+i5Lm6AcxNCsoYmnP3Czbc4NM3pVLE6D2am26jyGCOqVuGVzdkfLif0pMNsqoufzW0oS05Ug79yft4eWf09d2HSyONxTlUwShOyaV9VkPy6OhHqXX7lIerVX3laf5q3FIf2YK3+5UxbW4Bdfx+apnAlsYAI5kaslXeaG/gqUM7l+/e239MUCBsFZMKCLI+EuvC26itfYFIhCV6NhE0deCwQog3OTn2mVhC52uOx6noZnrTwRZft4yShAEQ8CZXgMWA3E6by/Giua5AJ63n+rPngZMSwjb5fUMJ9hbGmJoaxBmrrFhLv5SsVi8JYdO+NhIj6B4GCKu97HBbAgvb7jRU1rYhcKrxl7P8q+eO0sGB6sHBYoSGzwgXONrxwUcf1DvN+7FbyqnfR/HGEEAwDgx/lDIXYzQ8zzAF/vBTJwFp3fAtE/X7DIZpz/DW2mTuGm7jddTxFpFfZdFLuM/LDMYPY0zQRBDz4A86LIXG1wHos0xaroxBtXbL4JqMFESd2lClj4AbN5CfkFKMQXPjMaMPXyUPjuaNGRVJ+9HM4htdNCHx7ESExBRKPZG+PqOkDHMHPvNAHfjUMDv1jPGfedBqDOyhPwUXsSirr81wSyPqHCP69uPzAQd09z5AQ3aNzdFVdXmufJpcmqpfqsIIh/OLRoxpp6Zyz8pNxoCCiYTkdajf6jl4wr1tQi9o4Xn+6gQavSySen8nwd0mGxyqOsmNQ8Ib8j7OAzPw+hldjCewdr7AgOBT5Z77WO5pvBp5ZUxQURucoyvWgjAhssHeixcvp5cvDyMVdsBkSSN4aawBBkUwAAG21u5MH99dn+5uItCb6TxW7+mpd6sNooVZYYIlrQjiy5i8T0chCVgYI+Tt958DlLDD0z8CjU8VxoUyWQcf6tkBrZ+yhYcIYvTLh+K0uHxOu3IuT0azC9NOprOgw2E33Y//7r/7P0x//Md/MD169DB5xu6j3m7yQfrDVz7PM5jivdwqe+rD7BI/90c/jOUO9rEEfoWpNV4pPMLjgRePP4QsfIgi24vNFaHn6WA+mD2Mj4IVMACS6tlihA2A2biCEEv14MlCNgjr6EuHNsLl4IuuBPnu/na9NdzVqz8a6MMI53dvZ7fnlKxKHxhlRBIoaN2ViqlfG4yuV6j7bKzXr7KFz5RjVt65vn7YcdEWZbUNT7XDqkTldXW0Z05OlSaz5G/Ikk9JadtQphXGrnSO4gaWWQHjBhwJGsIRHDohMdw8ONwMFlbJI5dgMMRYpE1mhqzpGFsxWZGZ85Rj1ckWfohODCzfPbjXSKeRgcyAfC/BFTpzpFS6LJ7BuzRalMHH5Xv3Dx4Hh+n45GwQi5uJwrBoFbZcYgjL2mmP3PCHwEKYfuImzyHibR/M4EGDdsNIifBubgwPDJuGkFOYlmcH20Z070ynV2+mV5d2Jh1eZVjf17W6YNcDp/jdnc3UuzyFXrkegyfJ3gGiMjCGByMYK0JC+AnYeiyiPvmZ0HZBUHSoGgSuhmrT4vRtkoeQK1Ol5PmCE/25d//B9LOf/jDC7KWY9em9R/emew/uVXi/+OKLvqKJxXbtaBtygIVvKjE1Nt4SijCGayIQAi4Cetvm1I9hFBYfqvBplyWVjJb8PKAvb9pDDkxTcfIQKEZVIpTqV5/2BXRp2zec0CE3x+4nU6fchNhCYQZCGUfHQ+qVkz/3mxBPW/KMgs071s54S6VpTttV29nqPfwhJZtrY9tkSURBSRhIr4O6ZjBquFJH5SeJkDN45UNykKdGl65Tp64JBOb88GgUknLObZVUg5V6anARo0mEE9xCY3xqIwqD4jTD4CHPvLjBkMHVtKBlsR2kTFmyb9AMuXzAUfeo3j7wlBStlB8bm9P+3btdJ4C2Dus34FrpRIOUgQU8KXbxDqxiBl7gOPAE7Dz2JZDtx4Tm+NR7wsPS33kzGt1N7mPlWBHhWlpaAnq/Wr9H2CPEqZdAgByET4WIriyiq9S9OXQYHf9kTyNuY0DMbW9ZgXaTsDAKXmsUuvIsCipb2ueEpU3BWtRYlCrFVjzF/Yf3aeD04x9+EoPBK1GA1B/BJtTraddNyhMIlQclmPS37c6zcU+Fs4IPZcdjg3GMTT1hmgE/02hD2KOMqfvk9LzKxtj9wz/8Mui8jsJvVuCHMCY8PR+eRhspxcAnIHOspj3CcZYezXjyBZopM1BjWJT3dpM8nT1Id+bJt6+K7/6uPb+ow1AOxk1XSxQw80k5m2MYQORR2ueNMDMEQ9iTLf9REBjgOb5SjtImB2PN2M+CNnt/WzhRyKbAUR411Y13XgRSvzfB6vXCyxrW5NMNEG56lbPTRvmr7ASX8iIwclm5Gl5N3TEqFDuySKlc519p5rwnScry2vhpxZ5nBob9qqnrCKrMUbrInVKtO8+1Qb1zAtZl+blYlyEpz6lRWHw0ar67vdH92hBD+z0bg2xvqtQHB3dTd/Sg8Ed93oqk3Buhlbl241BgD5zoR/IXpwWdk4qr3xxgpI998BiivtwhnwoIBaJCYm93K4Asgveu7iI8zX35eD2DZzz36OvFg4bhnc5KBpaXQBh5RDzCpVJI8gAweRPFFuxfRYiPLk0nGLiTb1hwXraKrs5FO3h4wqZfMgZbeOqxmdzL589jkBLmR6gJdt/qicEQMulPEZoOFoYB6ieUkvYSbHUZzbTbKUJhjpC5I/A54IU6YIhgvv76m+np0xe1sPYM45GeP/02HvtJ79UbRXKdd8ol9MIUnhRc5xXYtB/DO/UU+O6rv0dQFP6hASPESKA3nO1iIrR99eoskYH+K6uf8mgVbzSip/Gao3JWplEMXp1gM8AVxGTqrEXoqoyuF5yNIOOnjQcHNoz+UDKR0NGZhURDIEV8jiqdFJg8NTzRAc7r65vdwaX1pi1woyBymYbq3HLgeoAXo+858EMv+dyHs3CfURAJuNanZ4zUKcFJuZ7nmAcbOYVhzEcblS3M3mPoycYwKgCoY4YDUA2njEmM/Zjt0YaxoIdxJ+veQPOBB8bY11/Vo93ax0PrvtmWWL3tny/qAFtb4Ydnl3alSblBh8jyqgFDXYW0dYFvcU1yT1uW7z+899hgwfnVWLCuFawoJd6KtRHiaTyr375gKgPC8+HNhjB0FDYNgAjl5sm7G0rzjNDy4sILBNfT7t7O9PEPPo5lSgiztRXEjeLeTK/OjK6PfpTGX95433g54ZpVal4VHN4cDsjahqeu9s8jYAyG7Xjmr2I+ev/j6dVhPBmip8AphgZ7Xmzmk/sG1jbDjPZT4VsGDMvblF/CqU73KI23mHgcDFlaEoK+nn75y19NX3/19fTsm2dVenSzLoAg1JKHfoUTQOA4J6qtK8x1gUEdZVdZ2jEziiGoWIc+DJCpPzwQCh4dn8XQvYkRjhfOPRWUFoHJTlgENBh/p4bOXDbc1FHcVJ06O/WTclavMUA3FCdt3Q+/rPKqbME65SyK0QUgvPXkt2N2hOAO4ua//NMMfBI5yct4GXSFj3a3fnJFaQMYGVRKWJWFjyaNgUV3Bt0kNHet60NmjOeIMlurvE6/l2aP3bA9bTMNK2vrCo5Si6UudYz+LDCMuofjOVz99mFTngfPESUO3ijj/XZy/TaqTX6Oi458+vEH0150axjzGLmUJ3+MItrIU6eVZ74Wq6pQpbLPyPtkUOUn128VO4RSj7LLAf6YpdNQmNsPTCO5eeu/l2P+7Pkt/B6SJxfFyv8RuNEs3ltThhUdLw2YmolQhwKIQlDGqOGYL3/yzfOERFHcNFr/fmy3ZMSTtw6TwnxhjpFoI+IWlWBk4SF8fo1GNhQl9AgHl+BBaPXpd3cPphfPn/XtMqO/Xe4YXEQR4A1mxQikvZsJZ+VxTzvSvJE33u11PP52YGrTUKaN6eDuQb9ttWpzgEQLGMKImAlAKwrN2w+B4WG0P8ypoA5B54xyWYM1mDLCNXWoGxraS7EJf06nTx/uVRHJFRr0SxLL6afHOFMcCjo8gCOeIl4qyIX+OSJEDZ1vB92GQIRPqZOHVpanwTf5hmGw7bMxgiF0Epz6ldPg2a4HQ5EyPC6hark5b+DCcyyvtImCKI+nRdcxOCbv+ppFL2MshtGDK/rNdPAzBHkY5eFgUkcI0e5ffq1pD9qtT8FRZlyTC8aespAjBm4F7YBPRjQflQ0+4Bu8jEBXJvJMHrDGcwUXFSx+4acfbZDMZpcMOYc0dMD37GwWcRtPfX/6+JMPAtNo/giz0RuEygcZWFRwnTZ5y1H93w/D8Q4NlIG2/HBGT3gub21vRrFTYbAHalYsgthQNlbw1eFJrStGIsxoBcUmqASOF23LigCCQFjlDdVTmakZZTCMclNyIdmrV4cd0TxNyKJtPBDBYP0jdu0zetGfUMFBJYg0FBkReE2UDbMJaARtc83A1DS9fPEs8Vv6our1ymhgoIKWWhl0m/a0/x38tfl18B/98dEZwcDmfpM+beBGv4lSooztCOGw9hXmPNO2egseK+cGZfL/YFrqRWz48Raw1SfFKAavwp+78ureFJcogIzoOf9qvym662uR06zwyZ8MPLr5U7Dca7H8p8kEH83bLcl9hunu/m4VEpaUHm+J+RyCG/ApL7THfUYa/1MvA0cAT88upueHx8EnvGubGAgRBYOuTeigDzxmMqxY6/vUQQIe5LJ0Ab8KECC5TzbGGM0Yc5D8PziXhL7JjB795liu5RUlzZGQPM26yD9+IvjBT/SJFvK1/hzlFpFa5GuNKcYISYWr3hx+gSwtIDYqaRvJWPeoT/JGnqk5WdDKOIwI9QeffhLaeuU13vhilssWWdCF0Yojig5cxuENA4xmYzoOT1QpXB/PSGVSaIEOYC3frtzpSyC9imT7JMz8SZmGA7nv13Y/huO1WWhtFBdBWPISCHvsSuBefpQnYB2IIHy5XQaH6W1DyusLQo7nJwwdZMo1hplTxwTTVIhpCSihfStcAbGxuZmwZ7tz5RjDEBE43gRpfO/Llx98ZztFU2cUOTQocwKnxixKuxE8xjvoQ0g2knkt+fvNrUV+CzwuFc4578Jyek8Z7qUTmAbtCBccAlPCQISHrzzDy42lhl2JFCFwv19KwTyFco0ltcg5x7ygGfgiH150CML9g53S7cGDe9O9e/sxpqF1eMO7M3bFux68QP1XuMZNhNLoieZCavSjQ7wIHBwyvzU8gQUEpR+0M1BECYdnN+p7bC0575KiJIega7915d7u4zGNSKtnDOjFKKs57TQ6jx6NygIfDeE6Rw4wKk2Sx37rw9AL+z1Dv7W2Hz5oJn9bnPPRcll1w0xZxkimHm0xPtS2JdVAB5xLeSVRBUs2rpIWeQe/59/wNLBwj+x6IcZAaPeeD+1ExJ1Risx8+OEH3ZPfiPm8u25D/+AxDB7eBk7ynx4fj7bnWkSGLuSnxm7RqOpukaOPDNeAs7y2sd6NFuKg87PwvLnulsI5ta+ZlzRq4WORO7wfi8/6LORrrkMrq1Rugseyayzvo6/RAYA8w2z9sjamTIuSJqSFlCsDAwgB5/146+0tb9DEIIRpIgHM5aE++fi96dNP3p9WA48e3XtwN/cp6+suFHny7YvpToiaYKq4YKb6MIJ3MUDGcGAub50WhfhhRPIZEKn38hwxc87Xvs71/t6exnZmoC9g5BnEbQ5h3THPuZ/+bkBGiAwN8qo86ZhrJ3u8t40nIrYNoQmIKRICggdolp8ys4zMP/AosrlmL9ZoCwVAKPgqN+/04Zko6Cj9a4zqp5IoTwTOhwnVR3gpKR5RMh6c8Wa9rR+AL5wsSkEDuDDjt7F2IioIGRDTFjjhKWVjeEpTyheP57fXaBSBHnRJ+wKPIqi3cgfx/JujvOGNkjnHMC6qHM5gZA/mIqNciJwM3HEmknLqaVqcVLGjXAqblnNbvWhOGRrBkI/cI2uqRgPlClX9eZamjF/3kmbDTidUrF2UWj0Ww9hCukr9wXuJPvdKU8tw5zBcRXjQxS6Bx2PbAntES3kWXBg4NHC0berPkUeq6YEu6NZ2rm2sxWMPQhs0S0vDyDtlvsEvfWYFDFDEraWCIehjhHMtRywgDS9qgCNKKiICKJD8vHuZkAPxYVMhjMVSiFITuJZKeUrNkvHo6hHeedOo1lv+jRiGCkOsVBry3iO7nAZmiHl1dpZgYHwG6OjwNGXT4qBBgBBRqI0K/gxqWEPVxTfpzxmFh5e8PHgQ6LndVwVXS4lkahyUibD7YAIcri/PYiQSYuYZUN0bPPUitpcEtjfGiwrwwOAhLDFSBkBCIws/0MGeYToBpq9IDaZhpIR2PLgPCaAJRWym3Lfa7Msnz6cXL3zoDx+9WDJCfq/Daqv64I6P+szlxwAcHAaubXJxdD36ivglhMaX0Ue9M52covGIyCAuggONsTUghYbDYCTCSCMGHIYqslPDJVIwACTyi7FKe2rUIysMHYXWbvDV2zA9eFVGkp9Mug8e2OSihj84eQa3tm1OuUixwHUyDINzeZWro4g8GZEfWwZHTvMcjOERh/bo0qXa1tuUH3g2vC9PR6RkjIJ8MDpWaXKY7733KH3rB91i6oJSlyaRpbRRFY00VOUv5zainA16n+WEceyNufri4ta4h7Yeu1he24rHhqC/FCQAFoh4UaBvs1xYrMDqDsUywGTJH6KL5024X16OkT/C1kUCrEaQSrtKBEq+vEq4hhBBlEfQsK7xTX6EIOQORsZqIMJhCuno5Gx6eTS+d0WojYRfBifttNc1YjXcDY5euzPn/PLwpAM1lpHepN6rCN9o9AiTCJbFDAIoHukysLu4IL8Olo939OEE4exF4HeRShk5PPFlmEbIraMXbnVqL3lFNhiH6BTcZ2zAPj23iML0zEbKvw59I6DJ1Jco9L3hk/J+0S/UKm0YOQk+4z3wRZ4c5V3yUBLTKoTV65+MJiGjbF5MsWmDvFbGdRAr7akRzi8c0BwcBojSaCfvPwSV90lb0OkiApd6u7lBfuEyeDn4CevOqoTnPhJQuUg5hle/vTzGg+A13nobn2yi+AyicnUmwYXkwEualUl9/kQW8yAff9p3s4NP1zckYbWDDJZWOaeklcbw3/WoZxgaYfjKcrw+A5zUsjkKf4FDOVI8QBk46W5oN1rkX59os7z0RLv29/en999/VLkye9EdannrGpGB30iBGpjtWy+6l0Nf8H9gNLIOWkjoUS+ePwbG4xqb9Sh2EboVTkRiQwmCSIFUfJIKRrExx2wb2Hmdb+GnLCEAjOD5zrWX8AcRWb543oUAaViNQZjW0AdzQzP32vfOPfmEIoTB/KT5VzhgGC+EiIgntGRQCEgXLBCsCluULsbiRbz1cs4DKkoduMMgouK0GxytRIODvrN93o6jXGDDEXHlply+vRX5a3gOrxG2IX6YkraBj/jaQEEYkpYNGAamc5hRdBs8Xl3fTo9iuS2mIVTtViQvRZRv8AvVMFQkw9gZOU09+SX4toFGv+LpX9ENcymMQqXNMASUyUH4JHQzEElxCatfMOqVFkkewkKYTk/O68VER6Im3ax+YTVl1a8UviuDVowA3Mu34KnPOxuJGsn0b1VYwUvkglTg1JvnvoUy4FAMsliFgVPahc/aTS50BxnRPKi8qKcGN+3sK6ItlRRYWqR5Q7aG96MAMgl14YK2w5Dw5HBQeBEaRx/evq4rR+tc8Jds5K+0yA10hDsDKZLAX8aCt04TR3c0clTepa5CxLJUWMeUU229iWLPfepgGTqImke4Xw7lx/n824I56rFzsry0NP0vCR68Suz/eA8AAAAASUVORK5CYII=;" parent="1" vertex="1">
          <mxGeometry x="-309.12" y="599.8" width="149.12" height="58.2" as="geometry" />
        </mxCell>
        <mxCell id="6UkwjP3vfvwC51z3tcwU-2" value="" style="rounded=1;whiteSpace=wrap;html=1;strokeWidth=2;fillWeight=4;hachureGap=8;hachureAngle=45;fillColor=#cce5ff;sketch=1;strokeColor=#36393d;" vertex="1" parent="1">
          <mxGeometry x="-120" y="1040" width="100" height="240" as="geometry" />
        </mxCell>
        <mxCell id="6UkwjP3vfvwC51z3tcwU-4" value="&lt;span style=&quot;font-weight: 400;&quot;&gt;&lt;font face=&quot;Comic Sans MS&quot;&gt;Category&lt;/font&gt;&lt;/span&gt;" style="text;strokeColor=none;fillColor=none;html=1;fontSize=24;fontStyle=1;verticalAlign=middle;align=center;" vertex="1" parent="1">
          <mxGeometry x="-120" y="1300" width="100" height="40" as="geometry" />
        </mxCell>
        <mxCell id="6UkwjP3vfvwC51z3tcwU-5" value="&lt;span style=&quot;font-weight: normal;&quot;&gt;Trees&lt;/span&gt;" style="text;strokeColor=none;fillColor=none;html=1;fontSize=24;fontStyle=1;verticalAlign=middle;align=center;fontFamily=Comic Sans MS;" vertex="1" parent="1">
          <mxGeometry x="-120" y="1059.5" width="100" height="40" as="geometry" />
        </mxCell>
        <mxCell id="6UkwjP3vfvwC51z3tcwU-6" value="&lt;span style=&quot;font-weight: 400;&quot;&gt;Road&lt;/span&gt;" style="text;strokeColor=none;fillColor=none;html=1;fontSize=24;fontStyle=1;verticalAlign=middle;align=center;fontFamily=Comic Sans MS;" vertex="1" parent="1">
          <mxGeometry x="-120" y="1120" width="100" height="40" as="geometry" />
        </mxCell>
        <mxCell id="6UkwjP3vfvwC51z3tcwU-7" value="&lt;span style=&quot;font-weight: 400;&quot;&gt;Buliding&lt;/span&gt;" style="text;strokeColor=none;fillColor=none;html=1;fontSize=24;fontStyle=1;verticalAlign=middle;align=center;fontFamily=Comic Sans MS;" vertex="1" parent="1">
          <mxGeometry x="-120" y="1180.5" width="100" height="40" as="geometry" />
        </mxCell>
        <mxCell id="6UkwjP3vfvwC51z3tcwU-8" value="&lt;span style=&quot;font-weight: 400;&quot;&gt;Grass&lt;/span&gt;" style="text;strokeColor=none;fillColor=none;html=1;fontSize=24;fontStyle=1;verticalAlign=middle;align=center;fontFamily=Comic Sans MS;" vertex="1" parent="1">
          <mxGeometry x="-120" y="1240" width="100" height="40" as="geometry" />
        </mxCell>
      </root>
    </mxGraphModel>
  </diagram>
</mxfile>
